<?xml version="1.0" standalone="no"?>
<svg xmlns="http://www.w3.org/2000/svg" width="1024" height="1331" viewBox="0 0 1000 1300"><defs><clipPath id="clip-path-dot-color"><path d="m 152 368 m 12 0 l 3.72 7.89 l 8.28 1.29 l -6 6.15 l 1.41 8.67 l -7.41 -4.11 l -7.41 4.11 l 1.41 -8.67 l -6 -6.15 l 8.28 -1.29 z"/><path d="m 152 416 m 12 0 l 3.72 7.89 l 8.28 1.29 l -6 6.15 l 1.41 8.67 l -7.41 -4.11 l -7.41 4.11 l 1.41 -8.67 l -6 -6.15 l 8.28 -1.29 z"/><path d="m 152 464 m 12 0 l 3.72 7.89 l 8.28 1.29 l -6 6.15 l 1.41 8.67 l -7.41 -4.11 l -7.41 4.11 l 1.41 -8.67 l -6 -6.15 l 8.28 -1.29 z"/><path d="m 152 488 m 12 0 l 3.72 7.89 l 8.28 1.29 l -6 6.15 l 1.41 8.67 l -7.41 -4.11 l -7.41 4.11 l 1.41 -8.67 l -6 -6.15 l 8.28 -1.29 z"/><path d="m 152 536 m 12 0 l 3.72 7.89 l 8.28 1.29 l -6 6.15 l 1.41 8.67 l -7.41 -4.11 l -7.41 4.11 l 1.41 -8.67 l -6 -6.15 l 8.28 -1.29 z"/><path d="m 152 584 m 12 0 l 3.72 7.89 l 8.28 1.29 l -6 6.15 l 1.41 8.67 l -7.41 -4.11 l -7.41 4.11 l 1.41 -8.67 l -6 -6.15 l 8.28 -1.29 z"/><path d="m 152 608 m 12 0 l 3.72 7.89 l 8.28 1.29 l -6 6.15 l 1.41 8.67 l -7.41 -4.11 l -7.41 4.11 l 1.41 -8.67 l -6 -6.15 l 8.28 -1.29 z"/><path d="m 176 440 m 12 0 l 3.72 7.89 l 8.28 1.29 l -6 6.15 l 1.41 8.67 l -7.41 -4.11 l -7.41 4.11 l 1.41 -8.67 l -6 -6.15 l 8.28 -1.29 z"/><path d="m 176 464 m 12 0 l 3.72 7.89 l 8.28 1.29 l -6 6.15 l 1.41 8.67 l -7.41 -4.11 l -7.41 4.11 l 1.41 -8.67 l -6 -6.15 l 8.28 -1.29 z"/><path d="m 176 536 m 12 0 l 3.72 7.89 l 8.28 1.29 l -6 6.15 l 1.41 8.67 l -7.41 -4.11 l -7.41 4.11 l 1.41 -8.67 l -6 -6.15 l 8.28 -1.29 z"/><path d="m 176 560 m 12 0 l 3.72 7.89 l 8.28 1.29 l -6 6.15 l 1.41 8.67 l -7.41 -4.11 l -7.41 4.11 l 1.41 -8.67 l -6 -6.15 l 8.28 -1.29 z"/><path d="m 176 632 m 12 0 l 3.72 7.89 l 8.28 1.29 l -6 6.15 l 1.41 8.67 l -7.41 -4.11 l -7.41 4.11 l 1.41 -8.67 l -6 -6.15 l 8.28 -1.29 z"/><path d="m 200 344 m 12 0 l 3.72 7.89 l 8.28 1.29 l -6 6.15 l 1.41 8.67 l -7.41 -4.11 l -7.41 4.11 l 1.41 -8.67 l -6 -6.15 l 8.28 -1.29 z"/><path d="m 200 416 m 12 0 l 3.72 7.89 l 8.28 1.29 l -6 6.15 l 1.41 8.67 l -7.41 -4.11 l -7.41 4.11 l 1.41 -8.67 l -6 -6.15 l 8.28 -1.29 z"/><path d="m 200 440 m 12 0 l 3.72 7.89 l 8.28 1.29 l -6 6.15 l 1.41 8.67 l -7.41 -4.11 l -7.41 4.11 l 1.41 -8.67 l -6 -6.15 l 8.28 -1.29 z"/><path d="m 200 464 m 12 0 l 3.72 7.89 l 8.28 1.29 l -6 6.15 l 1.41 8.67 l -7.41 -4.11 l -7.41 4.11 l 1.41 -8.67 l -6 -6.15 l 8.28 -1.29 z"/><path d="m 200 488 m 12 0 l 3.72 7.89 l 8.28 1.29 l -6 6.15 l 1.41 8.67 l -7.41 -4.11 l -7.41 4.11 l 1.41 -8.67 l -6 -6.15 l 8.28 -1.29 z"/><path d="m 200 536 m 12 0 l 3.72 7.89 l 8.28 1.29 l -6 6.15 l 1.41 8.67 l -7.41 -4.11 l -7.41 4.11 l 1.41 -8.67 l -6 -6.15 l 8.28 -1.29 z"/><path d="m 200 560 m 12 0 l 3.72 7.89 l 8.28 1.29 l -6 6.15 l 1.41 8.67 l -7.41 -4.11 l -7.41 4.11 l 1.41 -8.67 l -6 -6.15 l 8.28 -1.29 z"/><path d="m 200 608 m 12 0 l 3.72 7.89 l 8.28 1.29 l -6 6.15 l 1.41 8.67 l -7.41 -4.11 l -7.41 4.11 l 1.41 -8.67 l -6 -6.15 l 8.28 -1.29 z"/><path d="m 200 632 m 12 0 l 3.72 7.89 l 8.28 1.29 l -6 6.15 l 1.41 8.67 l -7.41 -4.11 l -7.41 4.11 l 1.41 -8.67 l -6 -6.15 l 8.28 -1.29 z"/><path d="m 224 416 m 12 0 l 3.72 7.89 l 8.28 1.29 l -6 6.15 l 1.41 8.67 l -7.41 -4.11 l -7.41 4.11 l 1.41 -8.67 l -6 -6.15 l 8.28 -1.29 z"/><path d="m 224 440 m 12 0 l 3.72 7.89 l 8.28 1.29 l -6 6.15 l 1.41 8.67 l -7.41 -4.11 l -7.41 4.11 l 1.41 -8.67 l -6 -6.15 l 8.28 -1.29 z"/><path d="m 224 488 m 12 0 l 3.72 7.89 l 8.28 1.29 l -6 6.15 l 1.41 8.67 l -7.41 -4.11 l -7.41 4.11 l 1.41 -8.67 l -6 -6.15 l 8.28 -1.29 z"/><path d="m 224 536 m 12 0 l 3.72 7.89 l 8.28 1.29 l -6 6.15 l 1.41 8.67 l -7.41 -4.11 l -7.41 4.11 l 1.41 -8.67 l -6 -6.15 l 8.28 -1.29 z"/><path d="m 224 584 m 12 0 l 3.72 7.89 l 8.28 1.29 l -6 6.15 l 1.41 8.67 l -7.41 -4.11 l -7.41 4.11 l 1.41 -8.67 l -6 -6.15 l 8.28 -1.29 z"/><path d="m 224 608 m 12 0 l 3.72 7.89 l 8.28 1.29 l -6 6.15 l 1.41 8.67 l -7.41 -4.11 l -7.41 4.11 l 1.41 -8.67 l -6 -6.15 l 8.28 -1.29 z"/><path d="m 248 344 m 12 0 l 3.72 7.89 l 8.28 1.29 l -6 6.15 l 1.41 8.67 l -7.41 -4.11 l -7.41 4.11 l 1.41 -8.67 l -6 -6.15 l 8.28 -1.29 z"/><path d="m 248 392 m 12 0 l 3.72 7.89 l 8.28 1.29 l -6 6.15 l 1.41 8.67 l -7.41 -4.11 l -7.41 4.11 l 1.41 -8.67 l -6 -6.15 l 8.28 -1.29 z"/><path d="m 248 416 m 12 0 l 3.72 7.89 l 8.28 1.29 l -6 6.15 l 1.41 8.67 l -7.41 -4.11 l -7.41 4.11 l 1.41 -8.67 l -6 -6.15 l 8.28 -1.29 z"/><path d="m 248 464 m 12 0 l 3.72 7.89 l 8.28 1.29 l -6 6.15 l 1.41 8.67 l -7.41 -4.11 l -7.41 4.11 l 1.41 -8.67 l -6 -6.15 l 8.28 -1.29 z"/><path d="m 248 488 m 12 0 l 3.72 7.89 l 8.28 1.29 l -6 6.15 l 1.41 8.67 l -7.41 -4.11 l -7.41 4.11 l 1.41 -8.67 l -6 -6.15 l 8.28 -1.29 z"/><path d="m 272 344 m 12 0 l 3.72 7.89 l 8.28 1.29 l -6 6.15 l 1.41 8.67 l -7.41 -4.11 l -7.41 4.11 l 1.41 -8.67 l -6 -6.15 l 8.28 -1.29 z"/><path d="m 272 368 m 12 0 l 3.72 7.89 l 8.28 1.29 l -6 6.15 l 1.41 8.67 l -7.41 -4.11 l -7.41 4.11 l 1.41 -8.67 l -6 -6.15 l 8.28 -1.29 z"/><path d="m 272 392 m 12 0 l 3.72 7.89 l 8.28 1.29 l -6 6.15 l 1.41 8.67 l -7.41 -4.11 l -7.41 4.11 l 1.41 -8.67 l -6 -6.15 l 8.28 -1.29 z"/><path d="m 272 416 m 12 0 l 3.72 7.89 l 8.28 1.29 l -6 6.15 l 1.41 8.67 l -7.41 -4.11 l -7.41 4.11 l 1.41 -8.67 l -6 -6.15 l 8.28 -1.29 z"/><path d="m 272 440 m 12 0 l 3.72 7.89 l 8.28 1.29 l -6 6.15 l 1.41 8.67 l -7.41 -4.11 l -7.41 4.11 l 1.41 -8.67 l -6 -6.15 l 8.28 -1.29 z"/><path d="m 272 464 m 12 0 l 3.72 7.89 l 8.28 1.29 l -6 6.15 l 1.41 8.67 l -7.41 -4.11 l -7.41 4.11 l 1.41 -8.67 l -6 -6.15 l 8.28 -1.29 z"/><path d="m 272 488 m 12 0 l 3.72 7.89 l 8.28 1.29 l -6 6.15 l 1.41 8.67 l -7.41 -4.11 l -7.41 4.11 l 1.41 -8.67 l -6 -6.15 l 8.28 -1.29 z"/><path d="m 272 584 m 12 0 l 3.72 7.89 l 8.28 1.29 l -6 6.15 l 1.41 8.67 l -7.41 -4.11 l -7.41 4.11 l 1.41 -8.67 l -6 -6.15 l 8.28 -1.29 z"/><path d="m 272 608 m 12 0 l 3.72 7.89 l 8.28 1.29 l -6 6.15 l 1.41 8.67 l -7.41 -4.11 l -7.41 4.11 l 1.41 -8.67 l -6 -6.15 l 8.28 -1.29 z"/><path d="m 272 632 m 12 0 l 3.72 7.89 l 8.28 1.29 l -6 6.15 l 1.41 8.67 l -7.41 -4.11 l -7.41 4.11 l 1.41 -8.67 l -6 -6.15 l 8.28 -1.29 z"/><path d="m 296 344 m 12 0 l 3.72 7.89 l 8.28 1.29 l -6 6.15 l 1.41 8.67 l -7.41 -4.11 l -7.41 4.11 l 1.41 -8.67 l -6 -6.15 l 8.28 -1.29 z"/><path d="m 296 392 m 12 0 l 3.72 7.89 l 8.28 1.29 l -6 6.15 l 1.41 8.67 l -7.41 -4.11 l -7.41 4.11 l 1.41 -8.67 l -6 -6.15 l 8.28 -1.29 z"/><path d="m 296 440 m 12 0 l 3.72 7.89 l 8.28 1.29 l -6 6.15 l 1.41 8.67 l -7.41 -4.11 l -7.41 4.11 l 1.41 -8.67 l -6 -6.15 l 8.28 -1.29 z"/><path d="m 296 488 m 12 0 l 3.72 7.89 l 8.28 1.29 l -6 6.15 l 1.41 8.67 l -7.41 -4.11 l -7.41 4.11 l 1.41 -8.67 l -6 -6.15 l 8.28 -1.29 z"/><path d="m 296 536 m 12 0 l 3.72 7.89 l 8.28 1.29 l -6 6.15 l 1.41 8.67 l -7.41 -4.11 l -7.41 4.11 l 1.41 -8.67 l -6 -6.15 l 8.28 -1.29 z"/><path d="m 296 584 m 12 0 l 3.72 7.89 l 8.28 1.29 l -6 6.15 l 1.41 8.67 l -7.41 -4.11 l -7.41 4.11 l 1.41 -8.67 l -6 -6.15 l 8.28 -1.29 z"/><path d="m 296 632 m 12 0 l 3.72 7.89 l 8.28 1.29 l -6 6.15 l 1.41 8.67 l -7.41 -4.11 l -7.41 4.11 l 1.41 -8.67 l -6 -6.15 l 8.28 -1.29 z"/><path d="m 320 368 m 12 0 l 3.72 7.89 l 8.28 1.29 l -6 6.15 l 1.41 8.67 l -7.41 -4.11 l -7.41 4.11 l 1.41 -8.67 l -6 -6.15 l 8.28 -1.29 z"/><path d="m 320 416 m 12 0 l 3.72 7.89 l 8.28 1.29 l -6 6.15 l 1.41 8.67 l -7.41 -4.11 l -7.41 4.11 l 1.41 -8.67 l -6 -6.15 l 8.28 -1.29 z"/><path d="m 320 464 m 12 0 l 3.72 7.89 l 8.28 1.29 l -6 6.15 l 1.41 8.67 l -7.41 -4.11 l -7.41 4.11 l 1.41 -8.67 l -6 -6.15 l 8.28 -1.29 z"/><path d="m 320 488 m 12 0 l 3.72 7.89 l 8.28 1.29 l -6 6.15 l 1.41 8.67 l -7.41 -4.11 l -7.41 4.11 l 1.41 -8.67 l -6 -6.15 l 8.28 -1.29 z"/><path d="m 320 560 m 12 0 l 3.72 7.89 l 8.28 1.29 l -6 6.15 l 1.41 8.67 l -7.41 -4.11 l -7.41 4.11 l 1.41 -8.67 l -6 -6.15 l 8.28 -1.29 z"/><path d="m 320 584 m 12 0 l 3.72 7.89 l 8.28 1.29 l -6 6.15 l 1.41 8.67 l -7.41 -4.11 l -7.41 4.11 l 1.41 -8.67 l -6 -6.15 l 8.28 -1.29 z"/><path d="m 320 608 m 12 0 l 3.72 7.89 l 8.28 1.29 l -6 6.15 l 1.41 8.67 l -7.41 -4.11 l -7.41 4.11 l 1.41 -8.67 l -6 -6.15 l 8.28 -1.29 z"/><path d="m 344 176 m 12 0 l 3.72 7.89 l 8.28 1.29 l -6 6.15 l 1.41 8.67 l -7.41 -4.11 l -7.41 4.11 l 1.41 -8.67 l -6 -6.15 l 8.28 -1.29 z"/><path d="m 344 248 m 12 0 l 3.72 7.89 l 8.28 1.29 l -6 6.15 l 1.41 8.67 l -7.41 -4.11 l -7.41 4.11 l 1.41 -8.67 l -6 -6.15 l 8.28 -1.29 z"/><path d="m 344 296 m 12 0 l 3.72 7.89 l 8.28 1.29 l -6 6.15 l 1.41 8.67 l -7.41 -4.11 l -7.41 4.11 l 1.41 -8.67 l -6 -6.15 l 8.28 -1.29 z"/><path d="m 344 344 m 12 0 l 3.72 7.89 l 8.28 1.29 l -6 6.15 l 1.41 8.67 l -7.41 -4.11 l -7.41 4.11 l 1.41 -8.67 l -6 -6.15 l 8.28 -1.29 z"/><path d="m 344 416 m 12 0 l 3.72 7.89 l 8.28 1.29 l -6 6.15 l 1.41 8.67 l -7.41 -4.11 l -7.41 4.11 l 1.41 -8.67 l -6 -6.15 l 8.28 -1.29 z"/><path d="m 344 440 m 12 0 l 3.72 7.89 l 8.28 1.29 l -6 6.15 l 1.41 8.67 l -7.41 -4.11 l -7.41 4.11 l 1.41 -8.67 l -6 -6.15 l 8.28 -1.29 z"/><path d="m 344 488 m 12 0 l 3.72 7.89 l 8.28 1.29 l -6 6.15 l 1.41 8.67 l -7.41 -4.11 l -7.41 4.11 l 1.41 -8.67 l -6 -6.15 l 8.28 -1.29 z"/><path d="m 344 512 m 12 0 l 3.72 7.89 l 8.28 1.29 l -6 6.15 l 1.41 8.67 l -7.41 -4.11 l -7.41 4.11 l 1.41 -8.67 l -6 -6.15 l 8.28 -1.29 z"/><path d="m 344 584 m 12 0 l 3.72 7.89 l 8.28 1.29 l -6 6.15 l 1.41 8.67 l -7.41 -4.11 l -7.41 4.11 l 1.41 -8.67 l -6 -6.15 l 8.28 -1.29 z"/><path d="m 344 608 m 12 0 l 3.72 7.89 l 8.28 1.29 l -6 6.15 l 1.41 8.67 l -7.41 -4.11 l -7.41 4.11 l 1.41 -8.67 l -6 -6.15 l 8.28 -1.29 z"/><path d="m 344 632 m 12 0 l 3.72 7.89 l 8.28 1.29 l -6 6.15 l 1.41 8.67 l -7.41 -4.11 l -7.41 4.11 l 1.41 -8.67 l -6 -6.15 l 8.28 -1.29 z"/><path d="m 344 656 m 12 0 l 3.72 7.89 l 8.28 1.29 l -6 6.15 l 1.41 8.67 l -7.41 -4.11 l -7.41 4.11 l 1.41 -8.67 l -6 -6.15 l 8.28 -1.29 z"/><path d="m 344 704 m 12 0 l 3.72 7.89 l 8.28 1.29 l -6 6.15 l 1.41 8.67 l -7.41 -4.11 l -7.41 4.11 l 1.41 -8.67 l -6 -6.15 l 8.28 -1.29 z"/><path d="m 344 728 m 12 0 l 3.72 7.89 l 8.28 1.29 l -6 6.15 l 1.41 8.67 l -7.41 -4.11 l -7.41 4.11 l 1.41 -8.67 l -6 -6.15 l 8.28 -1.29 z"/><path d="m 344 776 m 12 0 l 3.72 7.89 l 8.28 1.29 l -6 6.15 l 1.41 8.67 l -7.41 -4.11 l -7.41 4.11 l 1.41 -8.67 l -6 -6.15 l 8.28 -1.29 z"/><path d="m 368 176 m 12 0 l 3.72 7.89 l 8.28 1.29 l -6 6.15 l 1.41 8.67 l -7.41 -4.11 l -7.41 4.11 l 1.41 -8.67 l -6 -6.15 l 8.28 -1.29 z"/><path d="m 368 200 m 12 0 l 3.72 7.89 l 8.28 1.29 l -6 6.15 l 1.41 8.67 l -7.41 -4.11 l -7.41 4.11 l 1.41 -8.67 l -6 -6.15 l 8.28 -1.29 z"/><path d="m 368 248 m 12 0 l 3.72 7.89 l 8.28 1.29 l -6 6.15 l 1.41 8.67 l -7.41 -4.11 l -7.41 4.11 l 1.41 -8.67 l -6 -6.15 l 8.28 -1.29 z"/><path d="m 368 344 m 12 0 l 3.72 7.89 l 8.28 1.29 l -6 6.15 l 1.41 8.67 l -7.41 -4.11 l -7.41 4.11 l 1.41 -8.67 l -6 -6.15 l 8.28 -1.29 z"/><path d="m 368 368 m 12 0 l 3.72 7.89 l 8.28 1.29 l -6 6.15 l 1.41 8.67 l -7.41 -4.11 l -7.41 4.11 l 1.41 -8.67 l -6 -6.15 l 8.28 -1.29 z"/><path d="m 368 392 m 12 0 l 3.72 7.89 l 8.28 1.29 l -6 6.15 l 1.41 8.67 l -7.41 -4.11 l -7.41 4.11 l 1.41 -8.67 l -6 -6.15 l 8.28 -1.29 z"/><path d="m 368 416 m 12 0 l 3.72 7.89 l 8.28 1.29 l -6 6.15 l 1.41 8.67 l -7.41 -4.11 l -7.41 4.11 l 1.41 -8.67 l -6 -6.15 l 8.28 -1.29 z"/><path d="m 368 488 m 12 0 l 3.72 7.89 l 8.28 1.29 l -6 6.15 l 1.41 8.67 l -7.41 -4.11 l -7.41 4.11 l 1.41 -8.67 l -6 -6.15 l 8.28 -1.29 z"/><path d="m 368 512 m 12 0 l 3.72 7.89 l 8.28 1.29 l -6 6.15 l 1.41 8.67 l -7.41 -4.11 l -7.41 4.11 l 1.41 -8.67 l -6 -6.15 l 8.28 -1.29 z"/><path d="m 368 536 m 12 0 l 3.72 7.89 l 8.28 1.29 l -6 6.15 l 1.41 8.67 l -7.41 -4.11 l -7.41 4.11 l 1.41 -8.67 l -6 -6.15 l 8.28 -1.29 z"/><path d="m 368 560 m 12 0 l 3.72 7.89 l 8.28 1.29 l -6 6.15 l 1.41 8.67 l -7.41 -4.11 l -7.41 4.11 l 1.41 -8.67 l -6 -6.15 l 8.28 -1.29 z"/><path d="m 368 608 m 12 0 l 3.72 7.89 l 8.28 1.29 l -6 6.15 l 1.41 8.67 l -7.41 -4.11 l -7.41 4.11 l 1.41 -8.67 l -6 -6.15 l 8.28 -1.29 z"/><path d="m 368 632 m 12 0 l 3.72 7.89 l 8.28 1.29 l -6 6.15 l 1.41 8.67 l -7.41 -4.11 l -7.41 4.11 l 1.41 -8.67 l -6 -6.15 l 8.28 -1.29 z"/><path d="m 368 680 m 12 0 l 3.72 7.89 l 8.28 1.29 l -6 6.15 l 1.41 8.67 l -7.41 -4.11 l -7.41 4.11 l 1.41 -8.67 l -6 -6.15 l 8.28 -1.29 z"/><path d="m 368 704 m 12 0 l 3.72 7.89 l 8.28 1.29 l -6 6.15 l 1.41 8.67 l -7.41 -4.11 l -7.41 4.11 l 1.41 -8.67 l -6 -6.15 l 8.28 -1.29 z"/><path d="m 368 728 m 12 0 l 3.72 7.89 l 8.28 1.29 l -6 6.15 l 1.41 8.67 l -7.41 -4.11 l -7.41 4.11 l 1.41 -8.67 l -6 -6.15 l 8.28 -1.29 z"/><path d="m 368 800 m 12 0 l 3.72 7.89 l 8.28 1.29 l -6 6.15 l 1.41 8.67 l -7.41 -4.11 l -7.41 4.11 l 1.41 -8.67 l -6 -6.15 l 8.28 -1.29 z"/><path d="m 368 824 m 12 0 l 3.72 7.89 l 8.28 1.29 l -6 6.15 l 1.41 8.67 l -7.41 -4.11 l -7.41 4.11 l 1.41 -8.67 l -6 -6.15 l 8.28 -1.29 z"/><path d="m 392 152 m 12 0 l 3.72 7.89 l 8.28 1.29 l -6 6.15 l 1.41 8.67 l -7.41 -4.11 l -7.41 4.11 l 1.41 -8.67 l -6 -6.15 l 8.28 -1.29 z"/><path d="m 392 200 m 12 0 l 3.72 7.89 l 8.28 1.29 l -6 6.15 l 1.41 8.67 l -7.41 -4.11 l -7.41 4.11 l 1.41 -8.67 l -6 -6.15 l 8.28 -1.29 z"/><path d="m 392 224 m 12 0 l 3.72 7.89 l 8.28 1.29 l -6 6.15 l 1.41 8.67 l -7.41 -4.11 l -7.41 4.11 l 1.41 -8.67 l -6 -6.15 l 8.28 -1.29 z"/><path d="m 392 296 m 12 0 l 3.72 7.89 l 8.28 1.29 l -6 6.15 l 1.41 8.67 l -7.41 -4.11 l -7.41 4.11 l 1.41 -8.67 l -6 -6.15 l 8.28 -1.29 z"/><path d="m 392 416 m 12 0 l 3.72 7.89 l 8.28 1.29 l -6 6.15 l 1.41 8.67 l -7.41 -4.11 l -7.41 4.11 l 1.41 -8.67 l -6 -6.15 l 8.28 -1.29 z"/><path d="m 392 440 m 12 0 l 3.72 7.89 l 8.28 1.29 l -6 6.15 l 1.41 8.67 l -7.41 -4.11 l -7.41 4.11 l 1.41 -8.67 l -6 -6.15 l 8.28 -1.29 z"/><path d="m 392 464 m 12 0 l 3.72 7.89 l 8.28 1.29 l -6 6.15 l 1.41 8.67 l -7.41 -4.11 l -7.41 4.11 l 1.41 -8.67 l -6 -6.15 l 8.28 -1.29 z"/><path d="m 392 488 m 12 0 l 3.72 7.89 l 8.28 1.29 l -6 6.15 l 1.41 8.67 l -7.41 -4.11 l -7.41 4.11 l 1.41 -8.67 l -6 -6.15 l 8.28 -1.29 z"/><path d="m 392 512 m 12 0 l 3.72 7.89 l 8.28 1.29 l -6 6.15 l 1.41 8.67 l -7.41 -4.11 l -7.41 4.11 l 1.41 -8.67 l -6 -6.15 l 8.28 -1.29 z"/><path d="m 392 536 m 12 0 l 3.72 7.89 l 8.28 1.29 l -6 6.15 l 1.41 8.67 l -7.41 -4.11 l -7.41 4.11 l 1.41 -8.67 l -6 -6.15 l 8.28 -1.29 z"/><path d="m 392 560 m 12 0 l 3.72 7.89 l 8.28 1.29 l -6 6.15 l 1.41 8.67 l -7.41 -4.11 l -7.41 4.11 l 1.41 -8.67 l -6 -6.15 l 8.28 -1.29 z"/><path d="m 392 632 m 12 0 l 3.72 7.89 l 8.28 1.29 l -6 6.15 l 1.41 8.67 l -7.41 -4.11 l -7.41 4.11 l 1.41 -8.67 l -6 -6.15 l 8.28 -1.29 z"/><path d="m 392 656 m 12 0 l 3.72 7.89 l 8.28 1.29 l -6 6.15 l 1.41 8.67 l -7.41 -4.11 l -7.41 4.11 l 1.41 -8.67 l -6 -6.15 l 8.28 -1.29 z"/><path d="m 392 728 m 12 0 l 3.72 7.89 l 8.28 1.29 l -6 6.15 l 1.41 8.67 l -7.41 -4.11 l -7.41 4.11 l 1.41 -8.67 l -6 -6.15 l 8.28 -1.29 z"/><path d="m 392 824 m 12 0 l 3.72 7.89 l 8.28 1.29 l -6 6.15 l 1.41 8.67 l -7.41 -4.11 l -7.41 4.11 l 1.41 -8.67 l -6 -6.15 l 8.28 -1.29 z"/><path d="m 416 152 m 12 0 l 3.72 7.89 l 8.28 1.29 l -6 6.15 l 1.41 8.67 l -7.41 -4.11 l -7.41 4.11 l 1.41 -8.67 l -6 -6.15 l 8.28 -1.29 z"/><path d="m 416 176 m 12 0 l 3.72 7.89 l 8.28 1.29 l -6 6.15 l 1.41 8.67 l -7.41 -4.11 l -7.41 4.11 l 1.41 -8.67 l -6 -6.15 l 8.28 -1.29 z"/><path d="m 416 200 m 12 0 l 3.72 7.89 l 8.28 1.29 l -6 6.15 l 1.41 8.67 l -7.41 -4.11 l -7.41 4.11 l 1.41 -8.67 l -6 -6.15 l 8.28 -1.29 z"/><path d="m 416 224 m 12 0 l 3.72 7.89 l 8.28 1.29 l -6 6.15 l 1.41 8.67 l -7.41 -4.11 l -7.41 4.11 l 1.41 -8.67 l -6 -6.15 l 8.28 -1.29 z"/><path d="m 416 344 m 12 0 l 3.72 7.89 l 8.28 1.29 l -6 6.15 l 1.41 8.67 l -7.41 -4.11 l -7.41 4.11 l 1.41 -8.67 l -6 -6.15 l 8.28 -1.29 z"/><path d="m 416 368 m 12 0 l 3.72 7.89 l 8.28 1.29 l -6 6.15 l 1.41 8.67 l -7.41 -4.11 l -7.41 4.11 l 1.41 -8.67 l -6 -6.15 l 8.28 -1.29 z"/><path d="m 416 392 m 12 0 l 3.72 7.89 l 8.28 1.29 l -6 6.15 l 1.41 8.67 l -7.41 -4.11 l -7.41 4.11 l 1.41 -8.67 l -6 -6.15 l 8.28 -1.29 z"/><path d="m 416 464 m 12 0 l 3.72 7.89 l 8.28 1.29 l -6 6.15 l 1.41 8.67 l -7.41 -4.11 l -7.41 4.11 l 1.41 -8.67 l -6 -6.15 l 8.28 -1.29 z"/><path d="m 416 512 m 12 0 l 3.72 7.89 l 8.28 1.29 l -6 6.15 l 1.41 8.67 l -7.41 -4.11 l -7.41 4.11 l 1.41 -8.67 l -6 -6.15 l 8.28 -1.29 z"/><path d="m 416 560 m 12 0 l 3.72 7.89 l 8.28 1.29 l -6 6.15 l 1.41 8.67 l -7.41 -4.11 l -7.41 4.11 l 1.41 -8.67 l -6 -6.15 l 8.28 -1.29 z"/><path d="m 416 584 m 12 0 l 3.72 7.89 l 8.28 1.29 l -6 6.15 l 1.41 8.67 l -7.41 -4.11 l -7.41 4.11 l 1.41 -8.67 l -6 -6.15 l 8.28 -1.29 z"/><path d="m 416 656 m 12 0 l 3.72 7.89 l 8.28 1.29 l -6 6.15 l 1.41 8.67 l -7.41 -4.11 l -7.41 4.11 l 1.41 -8.67 l -6 -6.15 l 8.28 -1.29 z"/><path d="m 416 728 m 12 0 l 3.72 7.89 l 8.28 1.29 l -6 6.15 l 1.41 8.67 l -7.41 -4.11 l -7.41 4.11 l 1.41 -8.67 l -6 -6.15 l 8.28 -1.29 z"/><path d="m 416 752 m 12 0 l 3.72 7.89 l 8.28 1.29 l -6 6.15 l 1.41 8.67 l -7.41 -4.11 l -7.41 4.11 l 1.41 -8.67 l -6 -6.15 l 8.28 -1.29 z"/><path d="m 416 800 m 12 0 l 3.72 7.89 l 8.28 1.29 l -6 6.15 l 1.41 8.67 l -7.41 -4.11 l -7.41 4.11 l 1.41 -8.67 l -6 -6.15 l 8.28 -1.29 z"/><path d="m 416 824 m 12 0 l 3.72 7.89 l 8.28 1.29 l -6 6.15 l 1.41 8.67 l -7.41 -4.11 l -7.41 4.11 l 1.41 -8.67 l -6 -6.15 l 8.28 -1.29 z"/><path d="m 440 176 m 12 0 l 3.72 7.89 l 8.28 1.29 l -6 6.15 l 1.41 8.67 l -7.41 -4.11 l -7.41 4.11 l 1.41 -8.67 l -6 -6.15 l 8.28 -1.29 z"/><path d="m 440 248 m 12 0 l 3.72 7.89 l 8.28 1.29 l -6 6.15 l 1.41 8.67 l -7.41 -4.11 l -7.41 4.11 l 1.41 -8.67 l -6 -6.15 l 8.28 -1.29 z"/><path d="m 440 296 m 12 0 l 3.72 7.89 l 8.28 1.29 l -6 6.15 l 1.41 8.67 l -7.41 -4.11 l -7.41 4.11 l 1.41 -8.67 l -6 -6.15 l 8.28 -1.29 z"/><path d="m 440 320 m 12 0 l 3.72 7.89 l 8.28 1.29 l -6 6.15 l 1.41 8.67 l -7.41 -4.11 l -7.41 4.11 l 1.41 -8.67 l -6 -6.15 l 8.28 -1.29 z"/><path d="m 440 344 m 12 0 l 3.72 7.89 l 8.28 1.29 l -6 6.15 l 1.41 8.67 l -7.41 -4.11 l -7.41 4.11 l 1.41 -8.67 l -6 -6.15 l 8.28 -1.29 z"/><path d="m 440 464 m 12 0 l 3.72 7.89 l 8.28 1.29 l -6 6.15 l 1.41 8.67 l -7.41 -4.11 l -7.41 4.11 l 1.41 -8.67 l -6 -6.15 l 8.28 -1.29 z"/><path d="m 440 512 m 12 0 l 3.72 7.89 l 8.28 1.29 l -6 6.15 l 1.41 8.67 l -7.41 -4.11 l -7.41 4.11 l 1.41 -8.67 l -6 -6.15 l 8.28 -1.29 z"/><path d="m 440 536 m 12 0 l 3.72 7.89 l 8.28 1.29 l -6 6.15 l 1.41 8.67 l -7.41 -4.11 l -7.41 4.11 l 1.41 -8.67 l -6 -6.15 l 8.28 -1.29 z"/><path d="m 440 560 m 12 0 l 3.72 7.89 l 8.28 1.29 l -6 6.15 l 1.41 8.67 l -7.41 -4.11 l -7.41 4.11 l 1.41 -8.67 l -6 -6.15 l 8.28 -1.29 z"/><path d="m 440 584 m 12 0 l 3.72 7.89 l 8.28 1.29 l -6 6.15 l 1.41 8.67 l -7.41 -4.11 l -7.41 4.11 l 1.41 -8.67 l -6 -6.15 l 8.28 -1.29 z"/><path d="m 440 704 m 12 0 l 3.72 7.89 l 8.28 1.29 l -6 6.15 l 1.41 8.67 l -7.41 -4.11 l -7.41 4.11 l 1.41 -8.67 l -6 -6.15 l 8.28 -1.29 z"/><path d="m 440 776 m 12 0 l 3.72 7.89 l 8.28 1.29 l -6 6.15 l 1.41 8.67 l -7.41 -4.11 l -7.41 4.11 l 1.41 -8.67 l -6 -6.15 l 8.28 -1.29 z"/><path d="m 440 824 m 12 0 l 3.72 7.89 l 8.28 1.29 l -6 6.15 l 1.41 8.67 l -7.41 -4.11 l -7.41 4.11 l 1.41 -8.67 l -6 -6.15 l 8.28 -1.29 z"/><path d="m 464 200 m 12 0 l 3.72 7.89 l 8.28 1.29 l -6 6.15 l 1.41 8.67 l -7.41 -4.11 l -7.41 4.11 l 1.41 -8.67 l -6 -6.15 l 8.28 -1.29 z"/><path d="m 464 248 m 12 0 l 3.72 7.89 l 8.28 1.29 l -6 6.15 l 1.41 8.67 l -7.41 -4.11 l -7.41 4.11 l 1.41 -8.67 l -6 -6.15 l 8.28 -1.29 z"/><path d="m 464 272 m 12 0 l 3.72 7.89 l 8.28 1.29 l -6 6.15 l 1.41 8.67 l -7.41 -4.11 l -7.41 4.11 l 1.41 -8.67 l -6 -6.15 l 8.28 -1.29 z"/><path d="m 464 320 m 12 0 l 3.72 7.89 l 8.28 1.29 l -6 6.15 l 1.41 8.67 l -7.41 -4.11 l -7.41 4.11 l 1.41 -8.67 l -6 -6.15 l 8.28 -1.29 z"/><path d="m 464 344 m 12 0 l 3.72 7.89 l 8.28 1.29 l -6 6.15 l 1.41 8.67 l -7.41 -4.11 l -7.41 4.11 l 1.41 -8.67 l -6 -6.15 l 8.28 -1.29 z"/><path d="m 464 416 m 12 0 l 3.72 7.89 l 8.28 1.29 l -6 6.15 l 1.41 8.67 l -7.41 -4.11 l -7.41 4.11 l 1.41 -8.67 l -6 -6.15 l 8.28 -1.29 z"/><path d="m 464 512 m 12 0 l 3.72 7.89 l 8.28 1.29 l -6 6.15 l 1.41 8.67 l -7.41 -4.11 l -7.41 4.11 l 1.41 -8.67 l -6 -6.15 l 8.28 -1.29 z"/><path d="m 464 560 m 12 0 l 3.72 7.89 l 8.28 1.29 l -6 6.15 l 1.41 8.67 l -7.41 -4.11 l -7.41 4.11 l 1.41 -8.67 l -6 -6.15 l 8.28 -1.29 z"/><path d="m 464 584 m 12 0 l 3.72 7.89 l 8.28 1.29 l -6 6.15 l 1.41 8.67 l -7.41 -4.11 l -7.41 4.11 l 1.41 -8.67 l -6 -6.15 l 8.28 -1.29 z"/><path d="m 464 680 m 12 0 l 3.72 7.89 l 8.28 1.29 l -6 6.15 l 1.41 8.67 l -7.41 -4.11 l -7.41 4.11 l 1.41 -8.67 l -6 -6.15 l 8.28 -1.29 z"/><path d="m 464 728 m 12 0 l 3.72 7.89 l 8.28 1.29 l -6 6.15 l 1.41 8.67 l -7.41 -4.11 l -7.41 4.11 l 1.41 -8.67 l -6 -6.15 l 8.28 -1.29 z"/><path d="m 464 776 m 12 0 l 3.72 7.89 l 8.28 1.29 l -6 6.15 l 1.41 8.67 l -7.41 -4.11 l -7.41 4.11 l 1.41 -8.67 l -6 -6.15 l 8.28 -1.29 z"/><path d="m 464 824 m 12 0 l 3.72 7.89 l 8.28 1.29 l -6 6.15 l 1.41 8.67 l -7.41 -4.11 l -7.41 4.11 l 1.41 -8.67 l -6 -6.15 l 8.28 -1.29 z"/><path d="m 488 152 m 12 0 l 3.72 7.89 l 8.28 1.29 l -6 6.15 l 1.41 8.67 l -7.41 -4.11 l -7.41 4.11 l 1.41 -8.67 l -6 -6.15 l 8.28 -1.29 z"/><path d="m 488 224 m 12 0 l 3.72 7.89 l 8.28 1.29 l -6 6.15 l 1.41 8.67 l -7.41 -4.11 l -7.41 4.11 l 1.41 -8.67 l -6 -6.15 l 8.28 -1.29 z"/><path d="m 488 248 m 12 0 l 3.72 7.89 l 8.28 1.29 l -6 6.15 l 1.41 8.67 l -7.41 -4.11 l -7.41 4.11 l 1.41 -8.67 l -6 -6.15 l 8.28 -1.29 z"/><path d="m 488 272 m 12 0 l 3.72 7.89 l 8.28 1.29 l -6 6.15 l 1.41 8.67 l -7.41 -4.11 l -7.41 4.11 l 1.41 -8.67 l -6 -6.15 l 8.28 -1.29 z"/><path d="m 488 296 m 12 0 l 3.72 7.89 l 8.28 1.29 l -6 6.15 l 1.41 8.67 l -7.41 -4.11 l -7.41 4.11 l 1.41 -8.67 l -6 -6.15 l 8.28 -1.29 z"/><path d="m 488 320 m 12 0 l 3.72 7.89 l 8.28 1.29 l -6 6.15 l 1.41 8.67 l -7.41 -4.11 l -7.41 4.11 l 1.41 -8.67 l -6 -6.15 l 8.28 -1.29 z"/><path d="m 488 392 m 12 0 l 3.72 7.89 l 8.28 1.29 l -6 6.15 l 1.41 8.67 l -7.41 -4.11 l -7.41 4.11 l 1.41 -8.67 l -6 -6.15 l 8.28 -1.29 z"/><path d="m 488 416 m 12 0 l 3.72 7.89 l 8.28 1.29 l -6 6.15 l 1.41 8.67 l -7.41 -4.11 l -7.41 4.11 l 1.41 -8.67 l -6 -6.15 l 8.28 -1.29 z"/><path d="m 488 464 m 12 0 l 3.72 7.89 l 8.28 1.29 l -6 6.15 l 1.41 8.67 l -7.41 -4.11 l -7.41 4.11 l 1.41 -8.67 l -6 -6.15 l 8.28 -1.29 z"/><path d="m 488 488 m 12 0 l 3.72 7.89 l 8.28 1.29 l -6 6.15 l 1.41 8.67 l -7.41 -4.11 l -7.41 4.11 l 1.41 -8.67 l -6 -6.15 l 8.28 -1.29 z"/><path d="m 488 536 m 12 0 l 3.72 7.89 l 8.28 1.29 l -6 6.15 l 1.41 8.67 l -7.41 -4.11 l -7.41 4.11 l 1.41 -8.67 l -6 -6.15 l 8.28 -1.29 z"/><path d="m 488 584 m 12 0 l 3.72 7.89 l 8.28 1.29 l -6 6.15 l 1.41 8.67 l -7.41 -4.11 l -7.41 4.11 l 1.41 -8.67 l -6 -6.15 l 8.28 -1.29 z"/><path d="m 488 632 m 12 0 l 3.72 7.89 l 8.28 1.29 l -6 6.15 l 1.41 8.67 l -7.41 -4.11 l -7.41 4.11 l 1.41 -8.67 l -6 -6.15 l 8.28 -1.29 z"/><path d="m 488 656 m 12 0 l 3.72 7.89 l 8.28 1.29 l -6 6.15 l 1.41 8.67 l -7.41 -4.11 l -7.41 4.11 l 1.41 -8.67 l -6 -6.15 l 8.28 -1.29 z"/><path d="m 488 680 m 12 0 l 3.72 7.89 l 8.28 1.29 l -6 6.15 l 1.41 8.67 l -7.41 -4.11 l -7.41 4.11 l 1.41 -8.67 l -6 -6.15 l 8.28 -1.29 z"/><path d="m 488 728 m 12 0 l 3.72 7.89 l 8.28 1.29 l -6 6.15 l 1.41 8.67 l -7.41 -4.11 l -7.41 4.11 l 1.41 -8.67 l -6 -6.15 l 8.28 -1.29 z"/><path d="m 488 824 m 12 0 l 3.72 7.89 l 8.28 1.29 l -6 6.15 l 1.41 8.67 l -7.41 -4.11 l -7.41 4.11 l 1.41 -8.67 l -6 -6.15 l 8.28 -1.29 z"/><path d="m 512 152 m 12 0 l 3.72 7.89 l 8.28 1.29 l -6 6.15 l 1.41 8.67 l -7.41 -4.11 l -7.41 4.11 l 1.41 -8.67 l -6 -6.15 l 8.28 -1.29 z"/><path d="m 512 176 m 12 0 l 3.72 7.89 l 8.28 1.29 l -6 6.15 l 1.41 8.67 l -7.41 -4.11 l -7.41 4.11 l 1.41 -8.67 l -6 -6.15 l 8.28 -1.29 z"/><path d="m 512 248 m 12 0 l 3.72 7.89 l 8.28 1.29 l -6 6.15 l 1.41 8.67 l -7.41 -4.11 l -7.41 4.11 l 1.41 -8.67 l -6 -6.15 l 8.28 -1.29 z"/><path d="m 512 320 m 12 0 l 3.72 7.89 l 8.28 1.29 l -6 6.15 l 1.41 8.67 l -7.41 -4.11 l -7.41 4.11 l 1.41 -8.67 l -6 -6.15 l 8.28 -1.29 z"/><path d="m 512 392 m 12 0 l 3.72 7.89 l 8.28 1.29 l -6 6.15 l 1.41 8.67 l -7.41 -4.11 l -7.41 4.11 l 1.41 -8.67 l -6 -6.15 l 8.28 -1.29 z"/><path d="m 512 416 m 12 0 l 3.72 7.89 l 8.28 1.29 l -6 6.15 l 1.41 8.67 l -7.41 -4.11 l -7.41 4.11 l 1.41 -8.67 l -6 -6.15 l 8.28 -1.29 z"/><path d="m 512 440 m 12 0 l 3.72 7.89 l 8.28 1.29 l -6 6.15 l 1.41 8.67 l -7.41 -4.11 l -7.41 4.11 l 1.41 -8.67 l -6 -6.15 l 8.28 -1.29 z"/><path d="m 512 464 m 12 0 l 3.72 7.89 l 8.28 1.29 l -6 6.15 l 1.41 8.67 l -7.41 -4.11 l -7.41 4.11 l 1.41 -8.67 l -6 -6.15 l 8.28 -1.29 z"/><path d="m 512 488 m 12 0 l 3.72 7.89 l 8.28 1.29 l -6 6.15 l 1.41 8.67 l -7.41 -4.11 l -7.41 4.11 l 1.41 -8.67 l -6 -6.15 l 8.28 -1.29 z"/><path d="m 512 704 m 12 0 l 3.72 7.89 l 8.28 1.29 l -6 6.15 l 1.41 8.67 l -7.41 -4.11 l -7.41 4.11 l 1.41 -8.67 l -6 -6.15 l 8.28 -1.29 z"/><path d="m 512 752 m 12 0 l 3.72 7.89 l 8.28 1.29 l -6 6.15 l 1.41 8.67 l -7.41 -4.11 l -7.41 4.11 l 1.41 -8.67 l -6 -6.15 l 8.28 -1.29 z"/><path d="m 536 200 m 12 0 l 3.72 7.89 l 8.28 1.29 l -6 6.15 l 1.41 8.67 l -7.41 -4.11 l -7.41 4.11 l 1.41 -8.67 l -6 -6.15 l 8.28 -1.29 z"/><path d="m 536 224 m 12 0 l 3.72 7.89 l 8.28 1.29 l -6 6.15 l 1.41 8.67 l -7.41 -4.11 l -7.41 4.11 l 1.41 -8.67 l -6 -6.15 l 8.28 -1.29 z"/><path d="m 536 248 m 12 0 l 3.72 7.89 l 8.28 1.29 l -6 6.15 l 1.41 8.67 l -7.41 -4.11 l -7.41 4.11 l 1.41 -8.67 l -6 -6.15 l 8.28 -1.29 z"/><path d="m 536 296 m 12 0 l 3.72 7.89 l 8.28 1.29 l -6 6.15 l 1.41 8.67 l -7.41 -4.11 l -7.41 4.11 l 1.41 -8.67 l -6 -6.15 l 8.28 -1.29 z"/><path d="m 536 320 m 12 0 l 3.72 7.89 l 8.28 1.29 l -6 6.15 l 1.41 8.67 l -7.41 -4.11 l -7.41 4.11 l 1.41 -8.67 l -6 -6.15 l 8.28 -1.29 z"/><path d="m 536 344 m 12 0 l 3.72 7.89 l 8.28 1.29 l -6 6.15 l 1.41 8.67 l -7.41 -4.11 l -7.41 4.11 l 1.41 -8.67 l -6 -6.15 l 8.28 -1.29 z"/><path d="m 536 368 m 12 0 l 3.72 7.89 l 8.28 1.29 l -6 6.15 l 1.41 8.67 l -7.41 -4.11 l -7.41 4.11 l 1.41 -8.67 l -6 -6.15 l 8.28 -1.29 z"/><path d="m 536 416 m 12 0 l 3.72 7.89 l 8.28 1.29 l -6 6.15 l 1.41 8.67 l -7.41 -4.11 l -7.41 4.11 l 1.41 -8.67 l -6 -6.15 l 8.28 -1.29 z"/><path d="m 536 440 m 12 0 l 3.72 7.89 l 8.28 1.29 l -6 6.15 l 1.41 8.67 l -7.41 -4.11 l -7.41 4.11 l 1.41 -8.67 l -6 -6.15 l 8.28 -1.29 z"/><path d="m 536 488 m 12 0 l 3.72 7.89 l 8.28 1.29 l -6 6.15 l 1.41 8.67 l -7.41 -4.11 l -7.41 4.11 l 1.41 -8.67 l -6 -6.15 l 8.28 -1.29 z"/><path d="m 536 536 m 12 0 l 3.72 7.89 l 8.28 1.29 l -6 6.15 l 1.41 8.67 l -7.41 -4.11 l -7.41 4.11 l 1.41 -8.67 l -6 -6.15 l 8.28 -1.29 z"/><path d="m 536 608 m 12 0 l 3.72 7.89 l 8.28 1.29 l -6 6.15 l 1.41 8.67 l -7.41 -4.11 l -7.41 4.11 l 1.41 -8.67 l -6 -6.15 l 8.28 -1.29 z"/><path d="m 536 656 m 12 0 l 3.72 7.89 l 8.28 1.29 l -6 6.15 l 1.41 8.67 l -7.41 -4.11 l -7.41 4.11 l 1.41 -8.67 l -6 -6.15 l 8.28 -1.29 z"/><path d="m 536 800 m 12 0 l 3.72 7.89 l 8.28 1.29 l -6 6.15 l 1.41 8.67 l -7.41 -4.11 l -7.41 4.11 l 1.41 -8.67 l -6 -6.15 l 8.28 -1.29 z"/><path d="m 536 824 m 12 0 l 3.72 7.89 l 8.28 1.29 l -6 6.15 l 1.41 8.67 l -7.41 -4.11 l -7.41 4.11 l 1.41 -8.67 l -6 -6.15 l 8.28 -1.29 z"/><path d="m 560 152 m 12 0 l 3.72 7.89 l 8.28 1.29 l -6 6.15 l 1.41 8.67 l -7.41 -4.11 l -7.41 4.11 l 1.41 -8.67 l -6 -6.15 l 8.28 -1.29 z"/><path d="m 560 200 m 12 0 l 3.72 7.89 l 8.28 1.29 l -6 6.15 l 1.41 8.67 l -7.41 -4.11 l -7.41 4.11 l 1.41 -8.67 l -6 -6.15 l 8.28 -1.29 z"/><path d="m 560 320 m 12 0 l 3.72 7.89 l 8.28 1.29 l -6 6.15 l 1.41 8.67 l -7.41 -4.11 l -7.41 4.11 l 1.41 -8.67 l -6 -6.15 l 8.28 -1.29 z"/><path d="m 560 344 m 12 0 l 3.72 7.89 l 8.28 1.29 l -6 6.15 l 1.41 8.67 l -7.41 -4.11 l -7.41 4.11 l 1.41 -8.67 l -6 -6.15 l 8.28 -1.29 z"/><path d="m 560 392 m 12 0 l 3.72 7.89 l 8.28 1.29 l -6 6.15 l 1.41 8.67 l -7.41 -4.11 l -7.41 4.11 l 1.41 -8.67 l -6 -6.15 l 8.28 -1.29 z"/><path d="m 560 440 m 12 0 l 3.72 7.89 l 8.28 1.29 l -6 6.15 l 1.41 8.67 l -7.41 -4.11 l -7.41 4.11 l 1.41 -8.67 l -6 -6.15 l 8.28 -1.29 z"/><path d="m 560 488 m 12 0 l 3.72 7.89 l 8.28 1.29 l -6 6.15 l 1.41 8.67 l -7.41 -4.11 l -7.41 4.11 l 1.41 -8.67 l -6 -6.15 l 8.28 -1.29 z"/><path d="m 560 560 m 12 0 l 3.72 7.89 l 8.28 1.29 l -6 6.15 l 1.41 8.67 l -7.41 -4.11 l -7.41 4.11 l 1.41 -8.67 l -6 -6.15 l 8.28 -1.29 z"/><path d="m 560 584 m 12 0 l 3.72 7.89 l 8.28 1.29 l -6 6.15 l 1.41 8.67 l -7.41 -4.11 l -7.41 4.11 l 1.41 -8.67 l -6 -6.15 l 8.28 -1.29 z"/><path d="m 560 608 m 12 0 l 3.72 7.89 l 8.28 1.29 l -6 6.15 l 1.41 8.67 l -7.41 -4.11 l -7.41 4.11 l 1.41 -8.67 l -6 -6.15 l 8.28 -1.29 z"/><path d="m 560 656 m 12 0 l 3.72 7.89 l 8.28 1.29 l -6 6.15 l 1.41 8.67 l -7.41 -4.11 l -7.41 4.11 l 1.41 -8.67 l -6 -6.15 l 8.28 -1.29 z"/><path d="m 560 680 m 12 0 l 3.72 7.89 l 8.28 1.29 l -6 6.15 l 1.41 8.67 l -7.41 -4.11 l -7.41 4.11 l 1.41 -8.67 l -6 -6.15 l 8.28 -1.29 z"/><path d="m 560 704 m 12 0 l 3.72 7.89 l 8.28 1.29 l -6 6.15 l 1.41 8.67 l -7.41 -4.11 l -7.41 4.11 l 1.41 -8.67 l -6 -6.15 l 8.28 -1.29 z"/><path d="m 560 728 m 12 0 l 3.72 7.89 l 8.28 1.29 l -6 6.15 l 1.41 8.67 l -7.41 -4.11 l -7.41 4.11 l 1.41 -8.67 l -6 -6.15 l 8.28 -1.29 z"/><path d="m 560 776 m 12 0 l 3.72 7.89 l 8.28 1.29 l -6 6.15 l 1.41 8.67 l -7.41 -4.11 l -7.41 4.11 l 1.41 -8.67 l -6 -6.15 l 8.28 -1.29 z"/><path d="m 560 824 m 12 0 l 3.72 7.89 l 8.28 1.29 l -6 6.15 l 1.41 8.67 l -7.41 -4.11 l -7.41 4.11 l 1.41 -8.67 l -6 -6.15 l 8.28 -1.29 z"/><path d="m 584 200 m 12 0 l 3.72 7.89 l 8.28 1.29 l -6 6.15 l 1.41 8.67 l -7.41 -4.11 l -7.41 4.11 l 1.41 -8.67 l -6 -6.15 l 8.28 -1.29 z"/><path d="m 584 224 m 12 0 l 3.72 7.89 l 8.28 1.29 l -6 6.15 l 1.41 8.67 l -7.41 -4.11 l -7.41 4.11 l 1.41 -8.67 l -6 -6.15 l 8.28 -1.29 z"/><path d="m 584 248 m 12 0 l 3.72 7.89 l 8.28 1.29 l -6 6.15 l 1.41 8.67 l -7.41 -4.11 l -7.41 4.11 l 1.41 -8.67 l -6 -6.15 l 8.28 -1.29 z"/><path d="m 584 272 m 12 0 l 3.72 7.89 l 8.28 1.29 l -6 6.15 l 1.41 8.67 l -7.41 -4.11 l -7.41 4.11 l 1.41 -8.67 l -6 -6.15 l 8.28 -1.29 z"/><path d="m 584 296 m 12 0 l 3.72 7.89 l 8.28 1.29 l -6 6.15 l 1.41 8.67 l -7.41 -4.11 l -7.41 4.11 l 1.41 -8.67 l -6 -6.15 l 8.28 -1.29 z"/><path d="m 584 320 m 12 0 l 3.72 7.89 l 8.28 1.29 l -6 6.15 l 1.41 8.67 l -7.41 -4.11 l -7.41 4.11 l 1.41 -8.67 l -6 -6.15 l 8.28 -1.29 z"/><path d="m 584 344 m 12 0 l 3.72 7.89 l 8.28 1.29 l -6 6.15 l 1.41 8.67 l -7.41 -4.11 l -7.41 4.11 l 1.41 -8.67 l -6 -6.15 l 8.28 -1.29 z"/><path d="m 584 368 m 12 0 l 3.72 7.89 l 8.28 1.29 l -6 6.15 l 1.41 8.67 l -7.41 -4.11 l -7.41 4.11 l 1.41 -8.67 l -6 -6.15 l 8.28 -1.29 z"/><path d="m 584 464 m 12 0 l 3.72 7.89 l 8.28 1.29 l -6 6.15 l 1.41 8.67 l -7.41 -4.11 l -7.41 4.11 l 1.41 -8.67 l -6 -6.15 l 8.28 -1.29 z"/><path d="m 584 488 m 12 0 l 3.72 7.89 l 8.28 1.29 l -6 6.15 l 1.41 8.67 l -7.41 -4.11 l -7.41 4.11 l 1.41 -8.67 l -6 -6.15 l 8.28 -1.29 z"/><path d="m 584 512 m 12 0 l 3.72 7.89 l 8.28 1.29 l -6 6.15 l 1.41 8.67 l -7.41 -4.11 l -7.41 4.11 l 1.41 -8.67 l -6 -6.15 l 8.28 -1.29 z"/><path d="m 584 584 m 12 0 l 3.72 7.89 l 8.28 1.29 l -6 6.15 l 1.41 8.67 l -7.41 -4.11 l -7.41 4.11 l 1.41 -8.67 l -6 -6.15 l 8.28 -1.29 z"/><path d="m 584 632 m 12 0 l 3.72 7.89 l 8.28 1.29 l -6 6.15 l 1.41 8.67 l -7.41 -4.11 l -7.41 4.11 l 1.41 -8.67 l -6 -6.15 l 8.28 -1.29 z"/><path d="m 584 752 m 12 0 l 3.72 7.89 l 8.28 1.29 l -6 6.15 l 1.41 8.67 l -7.41 -4.11 l -7.41 4.11 l 1.41 -8.67 l -6 -6.15 l 8.28 -1.29 z"/><path d="m 584 776 m 12 0 l 3.72 7.89 l 8.28 1.29 l -6 6.15 l 1.41 8.67 l -7.41 -4.11 l -7.41 4.11 l 1.41 -8.67 l -6 -6.15 l 8.28 -1.29 z"/><path d="m 584 824 m 12 0 l 3.72 7.89 l 8.28 1.29 l -6 6.15 l 1.41 8.67 l -7.41 -4.11 l -7.41 4.11 l 1.41 -8.67 l -6 -6.15 l 8.28 -1.29 z"/><path d="m 608 248 m 12 0 l 3.72 7.89 l 8.28 1.29 l -6 6.15 l 1.41 8.67 l -7.41 -4.11 l -7.41 4.11 l 1.41 -8.67 l -6 -6.15 l 8.28 -1.29 z"/><path d="m 608 344 m 12 0 l 3.72 7.89 l 8.28 1.29 l -6 6.15 l 1.41 8.67 l -7.41 -4.11 l -7.41 4.11 l 1.41 -8.67 l -6 -6.15 l 8.28 -1.29 z"/><path d="m 608 392 m 12 0 l 3.72 7.89 l 8.28 1.29 l -6 6.15 l 1.41 8.67 l -7.41 -4.11 l -7.41 4.11 l 1.41 -8.67 l -6 -6.15 l 8.28 -1.29 z"/><path d="m 608 440 m 12 0 l 3.72 7.89 l 8.28 1.29 l -6 6.15 l 1.41 8.67 l -7.41 -4.11 l -7.41 4.11 l 1.41 -8.67 l -6 -6.15 l 8.28 -1.29 z"/><path d="m 608 464 m 12 0 l 3.72 7.89 l 8.28 1.29 l -6 6.15 l 1.41 8.67 l -7.41 -4.11 l -7.41 4.11 l 1.41 -8.67 l -6 -6.15 l 8.28 -1.29 z"/><path d="m 608 488 m 12 0 l 3.72 7.89 l 8.28 1.29 l -6 6.15 l 1.41 8.67 l -7.41 -4.11 l -7.41 4.11 l 1.41 -8.67 l -6 -6.15 l 8.28 -1.29 z"/><path d="m 608 512 m 12 0 l 3.72 7.89 l 8.28 1.29 l -6 6.15 l 1.41 8.67 l -7.41 -4.11 l -7.41 4.11 l 1.41 -8.67 l -6 -6.15 l 8.28 -1.29 z"/><path d="m 608 536 m 12 0 l 3.72 7.89 l 8.28 1.29 l -6 6.15 l 1.41 8.67 l -7.41 -4.11 l -7.41 4.11 l 1.41 -8.67 l -6 -6.15 l 8.28 -1.29 z"/><path d="m 608 560 m 12 0 l 3.72 7.89 l 8.28 1.29 l -6 6.15 l 1.41 8.67 l -7.41 -4.11 l -7.41 4.11 l 1.41 -8.67 l -6 -6.15 l 8.28 -1.29 z"/><path d="m 608 632 m 12 0 l 3.72 7.89 l 8.28 1.29 l -6 6.15 l 1.41 8.67 l -7.41 -4.11 l -7.41 4.11 l 1.41 -8.67 l -6 -6.15 l 8.28 -1.29 z"/><path d="m 608 704 m 12 0 l 3.72 7.89 l 8.28 1.29 l -6 6.15 l 1.41 8.67 l -7.41 -4.11 l -7.41 4.11 l 1.41 -8.67 l -6 -6.15 l 8.28 -1.29 z"/><path d="m 608 728 m 12 0 l 3.72 7.89 l 8.28 1.29 l -6 6.15 l 1.41 8.67 l -7.41 -4.11 l -7.41 4.11 l 1.41 -8.67 l -6 -6.15 l 8.28 -1.29 z"/><path d="m 608 800 m 12 0 l 3.72 7.89 l 8.28 1.29 l -6 6.15 l 1.41 8.67 l -7.41 -4.11 l -7.41 4.11 l 1.41 -8.67 l -6 -6.15 l 8.28 -1.29 z"/><path d="m 632 152 m 12 0 l 3.72 7.89 l 8.28 1.29 l -6 6.15 l 1.41 8.67 l -7.41 -4.11 l -7.41 4.11 l 1.41 -8.67 l -6 -6.15 l 8.28 -1.29 z"/><path d="m 632 176 m 12 0 l 3.72 7.89 l 8.28 1.29 l -6 6.15 l 1.41 8.67 l -7.41 -4.11 l -7.41 4.11 l 1.41 -8.67 l -6 -6.15 l 8.28 -1.29 z"/><path d="m 632 200 m 12 0 l 3.72 7.89 l 8.28 1.29 l -6 6.15 l 1.41 8.67 l -7.41 -4.11 l -7.41 4.11 l 1.41 -8.67 l -6 -6.15 l 8.28 -1.29 z"/><path d="m 632 248 m 12 0 l 3.72 7.89 l 8.28 1.29 l -6 6.15 l 1.41 8.67 l -7.41 -4.11 l -7.41 4.11 l 1.41 -8.67 l -6 -6.15 l 8.28 -1.29 z"/><path d="m 632 296 m 12 0 l 3.72 7.89 l 8.28 1.29 l -6 6.15 l 1.41 8.67 l -7.41 -4.11 l -7.41 4.11 l 1.41 -8.67 l -6 -6.15 l 8.28 -1.29 z"/><path d="m 632 344 m 12 0 l 3.72 7.89 l 8.28 1.29 l -6 6.15 l 1.41 8.67 l -7.41 -4.11 l -7.41 4.11 l 1.41 -8.67 l -6 -6.15 l 8.28 -1.29 z"/><path d="m 632 416 m 12 0 l 3.72 7.89 l 8.28 1.29 l -6 6.15 l 1.41 8.67 l -7.41 -4.11 l -7.41 4.11 l 1.41 -8.67 l -6 -6.15 l 8.28 -1.29 z"/><path d="m 632 440 m 12 0 l 3.72 7.89 l 8.28 1.29 l -6 6.15 l 1.41 8.67 l -7.41 -4.11 l -7.41 4.11 l 1.41 -8.67 l -6 -6.15 l 8.28 -1.29 z"/><path d="m 632 464 m 12 0 l 3.72 7.89 l 8.28 1.29 l -6 6.15 l 1.41 8.67 l -7.41 -4.11 l -7.41 4.11 l 1.41 -8.67 l -6 -6.15 l 8.28 -1.29 z"/><path d="m 632 560 m 12 0 l 3.72 7.89 l 8.28 1.29 l -6 6.15 l 1.41 8.67 l -7.41 -4.11 l -7.41 4.11 l 1.41 -8.67 l -6 -6.15 l 8.28 -1.29 z"/><path d="m 632 632 m 12 0 l 3.72 7.89 l 8.28 1.29 l -6 6.15 l 1.41 8.67 l -7.41 -4.11 l -7.41 4.11 l 1.41 -8.67 l -6 -6.15 l 8.28 -1.29 z"/><path d="m 632 656 m 12 0 l 3.72 7.89 l 8.28 1.29 l -6 6.15 l 1.41 8.67 l -7.41 -4.11 l -7.41 4.11 l 1.41 -8.67 l -6 -6.15 l 8.28 -1.29 z"/><path d="m 632 680 m 12 0 l 3.72 7.89 l 8.28 1.29 l -6 6.15 l 1.41 8.67 l -7.41 -4.11 l -7.41 4.11 l 1.41 -8.67 l -6 -6.15 l 8.28 -1.29 z"/><path d="m 632 704 m 12 0 l 3.72 7.89 l 8.28 1.29 l -6 6.15 l 1.41 8.67 l -7.41 -4.11 l -7.41 4.11 l 1.41 -8.67 l -6 -6.15 l 8.28 -1.29 z"/><path d="m 632 728 m 12 0 l 3.72 7.89 l 8.28 1.29 l -6 6.15 l 1.41 8.67 l -7.41 -4.11 l -7.41 4.11 l 1.41 -8.67 l -6 -6.15 l 8.28 -1.29 z"/><path d="m 632 824 m 12 0 l 3.72 7.89 l 8.28 1.29 l -6 6.15 l 1.41 8.67 l -7.41 -4.11 l -7.41 4.11 l 1.41 -8.67 l -6 -6.15 l 8.28 -1.29 z"/><path d="m 656 344 m 12 0 l 3.72 7.89 l 8.28 1.29 l -6 6.15 l 1.41 8.67 l -7.41 -4.11 l -7.41 4.11 l 1.41 -8.67 l -6 -6.15 l 8.28 -1.29 z"/><path d="m 656 368 m 12 0 l 3.72 7.89 l 8.28 1.29 l -6 6.15 l 1.41 8.67 l -7.41 -4.11 l -7.41 4.11 l 1.41 -8.67 l -6 -6.15 l 8.28 -1.29 z"/><path d="m 656 416 m 12 0 l 3.72 7.89 l 8.28 1.29 l -6 6.15 l 1.41 8.67 l -7.41 -4.11 l -7.41 4.11 l 1.41 -8.67 l -6 -6.15 l 8.28 -1.29 z"/><path d="m 656 464 m 12 0 l 3.72 7.89 l 8.28 1.29 l -6 6.15 l 1.41 8.67 l -7.41 -4.11 l -7.41 4.11 l 1.41 -8.67 l -6 -6.15 l 8.28 -1.29 z"/><path d="m 656 512 m 12 0 l 3.72 7.89 l 8.28 1.29 l -6 6.15 l 1.41 8.67 l -7.41 -4.11 l -7.41 4.11 l 1.41 -8.67 l -6 -6.15 l 8.28 -1.29 z"/><path d="m 656 584 m 12 0 l 3.72 7.89 l 8.28 1.29 l -6 6.15 l 1.41 8.67 l -7.41 -4.11 l -7.41 4.11 l 1.41 -8.67 l -6 -6.15 l 8.28 -1.29 z"/><path d="m 656 632 m 12 0 l 3.72 7.89 l 8.28 1.29 l -6 6.15 l 1.41 8.67 l -7.41 -4.11 l -7.41 4.11 l 1.41 -8.67 l -6 -6.15 l 8.28 -1.29 z"/><path d="m 656 728 m 12 0 l 3.72 7.89 l 8.28 1.29 l -6 6.15 l 1.41 8.67 l -7.41 -4.11 l -7.41 4.11 l 1.41 -8.67 l -6 -6.15 l 8.28 -1.29 z"/><path d="m 656 776 m 12 0 l 3.72 7.89 l 8.28 1.29 l -6 6.15 l 1.41 8.67 l -7.41 -4.11 l -7.41 4.11 l 1.41 -8.67 l -6 -6.15 l 8.28 -1.29 z"/><path d="m 680 416 m 12 0 l 3.72 7.89 l 8.28 1.29 l -6 6.15 l 1.41 8.67 l -7.41 -4.11 l -7.41 4.11 l 1.41 -8.67 l -6 -6.15 l 8.28 -1.29 z"/><path d="m 680 440 m 12 0 l 3.72 7.89 l 8.28 1.29 l -6 6.15 l 1.41 8.67 l -7.41 -4.11 l -7.41 4.11 l 1.41 -8.67 l -6 -6.15 l 8.28 -1.29 z"/><path d="m 680 464 m 12 0 l 3.72 7.89 l 8.28 1.29 l -6 6.15 l 1.41 8.67 l -7.41 -4.11 l -7.41 4.11 l 1.41 -8.67 l -6 -6.15 l 8.28 -1.29 z"/><path d="m 680 488 m 12 0 l 3.72 7.89 l 8.28 1.29 l -6 6.15 l 1.41 8.67 l -7.41 -4.11 l -7.41 4.11 l 1.41 -8.67 l -6 -6.15 l 8.28 -1.29 z"/><path d="m 680 512 m 12 0 l 3.72 7.89 l 8.28 1.29 l -6 6.15 l 1.41 8.67 l -7.41 -4.11 l -7.41 4.11 l 1.41 -8.67 l -6 -6.15 l 8.28 -1.29 z"/><path d="m 680 560 m 12 0 l 3.72 7.89 l 8.28 1.29 l -6 6.15 l 1.41 8.67 l -7.41 -4.11 l -7.41 4.11 l 1.41 -8.67 l -6 -6.15 l 8.28 -1.29 z"/><path d="m 680 608 m 12 0 l 3.72 7.89 l 8.28 1.29 l -6 6.15 l 1.41 8.67 l -7.41 -4.11 l -7.41 4.11 l 1.41 -8.67 l -6 -6.15 l 8.28 -1.29 z"/><path d="m 680 632 m 12 0 l 3.72 7.89 l 8.28 1.29 l -6 6.15 l 1.41 8.67 l -7.41 -4.11 l -7.41 4.11 l 1.41 -8.67 l -6 -6.15 l 8.28 -1.29 z"/><path d="m 680 680 m 12 0 l 3.72 7.89 l 8.28 1.29 l -6 6.15 l 1.41 8.67 l -7.41 -4.11 l -7.41 4.11 l 1.41 -8.67 l -6 -6.15 l 8.28 -1.29 z"/><path d="m 680 728 m 12 0 l 3.72 7.89 l 8.28 1.29 l -6 6.15 l 1.41 8.67 l -7.41 -4.11 l -7.41 4.11 l 1.41 -8.67 l -6 -6.15 l 8.28 -1.29 z"/><path d="m 680 824 m 12 0 l 3.72 7.89 l 8.28 1.29 l -6 6.15 l 1.41 8.67 l -7.41 -4.11 l -7.41 4.11 l 1.41 -8.67 l -6 -6.15 l 8.28 -1.29 z"/><path d="m 704 392 m 12 0 l 3.72 7.89 l 8.28 1.29 l -6 6.15 l 1.41 8.67 l -7.41 -4.11 l -7.41 4.11 l 1.41 -8.67 l -6 -6.15 l 8.28 -1.29 z"/><path d="m 704 464 m 12 0 l 3.72 7.89 l 8.28 1.29 l -6 6.15 l 1.41 8.67 l -7.41 -4.11 l -7.41 4.11 l 1.41 -8.67 l -6 -6.15 l 8.28 -1.29 z"/><path d="m 704 560 m 12 0 l 3.72 7.89 l 8.28 1.29 l -6 6.15 l 1.41 8.67 l -7.41 -4.11 l -7.41 4.11 l 1.41 -8.67 l -6 -6.15 l 8.28 -1.29 z"/><path d="m 704 584 m 12 0 l 3.72 7.89 l 8.28 1.29 l -6 6.15 l 1.41 8.67 l -7.41 -4.11 l -7.41 4.11 l 1.41 -8.67 l -6 -6.15 l 8.28 -1.29 z"/><path d="m 704 608 m 12 0 l 3.72 7.89 l 8.28 1.29 l -6 6.15 l 1.41 8.67 l -7.41 -4.11 l -7.41 4.11 l 1.41 -8.67 l -6 -6.15 l 8.28 -1.29 z"/><path d="m 704 632 m 12 0 l 3.72 7.89 l 8.28 1.29 l -6 6.15 l 1.41 8.67 l -7.41 -4.11 l -7.41 4.11 l 1.41 -8.67 l -6 -6.15 l 8.28 -1.29 z"/><path d="m 704 728 m 12 0 l 3.72 7.89 l 8.28 1.29 l -6 6.15 l 1.41 8.67 l -7.41 -4.11 l -7.41 4.11 l 1.41 -8.67 l -6 -6.15 l 8.28 -1.29 z"/><path d="m 704 752 m 12 0 l 3.72 7.89 l 8.28 1.29 l -6 6.15 l 1.41 8.67 l -7.41 -4.11 l -7.41 4.11 l 1.41 -8.67 l -6 -6.15 l 8.28 -1.29 z"/><path d="m 728 344 m 12 0 l 3.72 7.89 l 8.28 1.29 l -6 6.15 l 1.41 8.67 l -7.41 -4.11 l -7.41 4.11 l 1.41 -8.67 l -6 -6.15 l 8.28 -1.29 z"/><path d="m 728 368 m 12 0 l 3.72 7.89 l 8.28 1.29 l -6 6.15 l 1.41 8.67 l -7.41 -4.11 l -7.41 4.11 l 1.41 -8.67 l -6 -6.15 l 8.28 -1.29 z"/><path d="m 728 392 m 12 0 l 3.72 7.89 l 8.28 1.29 l -6 6.15 l 1.41 8.67 l -7.41 -4.11 l -7.41 4.11 l 1.41 -8.67 l -6 -6.15 l 8.28 -1.29 z"/><path d="m 728 416 m 12 0 l 3.72 7.89 l 8.28 1.29 l -6 6.15 l 1.41 8.67 l -7.41 -4.11 l -7.41 4.11 l 1.41 -8.67 l -6 -6.15 l 8.28 -1.29 z"/><path d="m 728 488 m 12 0 l 3.72 7.89 l 8.28 1.29 l -6 6.15 l 1.41 8.67 l -7.41 -4.11 l -7.41 4.11 l 1.41 -8.67 l -6 -6.15 l 8.28 -1.29 z"/><path d="m 728 512 m 12 0 l 3.72 7.89 l 8.28 1.29 l -6 6.15 l 1.41 8.67 l -7.41 -4.11 l -7.41 4.11 l 1.41 -8.67 l -6 -6.15 l 8.28 -1.29 z"/><path d="m 728 584 m 12 0 l 3.72 7.89 l 8.28 1.29 l -6 6.15 l 1.41 8.67 l -7.41 -4.11 l -7.41 4.11 l 1.41 -8.67 l -6 -6.15 l 8.28 -1.29 z"/><path d="m 728 608 m 12 0 l 3.72 7.89 l 8.28 1.29 l -6 6.15 l 1.41 8.67 l -7.41 -4.11 l -7.41 4.11 l 1.41 -8.67 l -6 -6.15 l 8.28 -1.29 z"/><path d="m 728 632 m 12 0 l 3.72 7.89 l 8.28 1.29 l -6 6.15 l 1.41 8.67 l -7.41 -4.11 l -7.41 4.11 l 1.41 -8.67 l -6 -6.15 l 8.28 -1.29 z"/><path d="m 728 656 m 12 0 l 3.72 7.89 l 8.28 1.29 l -6 6.15 l 1.41 8.67 l -7.41 -4.11 l -7.41 4.11 l 1.41 -8.67 l -6 -6.15 l 8.28 -1.29 z"/><path d="m 728 680 m 12 0 l 3.72 7.89 l 8.28 1.29 l -6 6.15 l 1.41 8.67 l -7.41 -4.11 l -7.41 4.11 l 1.41 -8.67 l -6 -6.15 l 8.28 -1.29 z"/><path d="m 728 704 m 12 0 l 3.72 7.89 l 8.28 1.29 l -6 6.15 l 1.41 8.67 l -7.41 -4.11 l -7.41 4.11 l 1.41 -8.67 l -6 -6.15 l 8.28 -1.29 z"/><path d="m 728 728 m 12 0 l 3.72 7.89 l 8.28 1.29 l -6 6.15 l 1.41 8.67 l -7.41 -4.11 l -7.41 4.11 l 1.41 -8.67 l -6 -6.15 l 8.28 -1.29 z"/><path d="m 728 800 m 12 0 l 3.72 7.89 l 8.28 1.29 l -6 6.15 l 1.41 8.67 l -7.41 -4.11 l -7.41 4.11 l 1.41 -8.67 l -6 -6.15 l 8.28 -1.29 z"/><path d="m 728 824 m 12 0 l 3.72 7.89 l 8.28 1.29 l -6 6.15 l 1.41 8.67 l -7.41 -4.11 l -7.41 4.11 l 1.41 -8.67 l -6 -6.15 l 8.28 -1.29 z"/><path d="m 752 392 m 12 0 l 3.72 7.89 l 8.28 1.29 l -6 6.15 l 1.41 8.67 l -7.41 -4.11 l -7.41 4.11 l 1.41 -8.67 l -6 -6.15 l 8.28 -1.29 z"/><path d="m 752 416 m 12 0 l 3.72 7.89 l 8.28 1.29 l -6 6.15 l 1.41 8.67 l -7.41 -4.11 l -7.41 4.11 l 1.41 -8.67 l -6 -6.15 l 8.28 -1.29 z"/><path d="m 752 440 m 12 0 l 3.72 7.89 l 8.28 1.29 l -6 6.15 l 1.41 8.67 l -7.41 -4.11 l -7.41 4.11 l 1.41 -8.67 l -6 -6.15 l 8.28 -1.29 z"/><path d="m 752 488 m 12 0 l 3.72 7.89 l 8.28 1.29 l -6 6.15 l 1.41 8.67 l -7.41 -4.11 l -7.41 4.11 l 1.41 -8.67 l -6 -6.15 l 8.28 -1.29 z"/><path d="m 752 536 m 12 0 l 3.72 7.89 l 8.28 1.29 l -6 6.15 l 1.41 8.67 l -7.41 -4.11 l -7.41 4.11 l 1.41 -8.67 l -6 -6.15 l 8.28 -1.29 z"/><path d="m 752 560 m 12 0 l 3.72 7.89 l 8.28 1.29 l -6 6.15 l 1.41 8.67 l -7.41 -4.11 l -7.41 4.11 l 1.41 -8.67 l -6 -6.15 l 8.28 -1.29 z"/><path d="m 752 704 m 12 0 l 3.72 7.89 l 8.28 1.29 l -6 6.15 l 1.41 8.67 l -7.41 -4.11 l -7.41 4.11 l 1.41 -8.67 l -6 -6.15 l 8.28 -1.29 z"/><path d="m 752 776 m 12 0 l 3.72 7.89 l 8.28 1.29 l -6 6.15 l 1.41 8.67 l -7.41 -4.11 l -7.41 4.11 l 1.41 -8.67 l -6 -6.15 l 8.28 -1.29 z"/><path d="m 752 800 m 12 0 l 3.72 7.89 l 8.28 1.29 l -6 6.15 l 1.41 8.67 l -7.41 -4.11 l -7.41 4.11 l 1.41 -8.67 l -6 -6.15 l 8.28 -1.29 z"/><path d="m 776 464 m 12 0 l 3.72 7.89 l 8.28 1.29 l -6 6.15 l 1.41 8.67 l -7.41 -4.11 l -7.41 4.11 l 1.41 -8.67 l -6 -6.15 l 8.28 -1.29 z"/><path d="m 776 488 m 12 0 l 3.72 7.89 l 8.28 1.29 l -6 6.15 l 1.41 8.67 l -7.41 -4.11 l -7.41 4.11 l 1.41 -8.67 l -6 -6.15 l 8.28 -1.29 z"/><path d="m 776 536 m 12 0 l 3.72 7.89 l 8.28 1.29 l -6 6.15 l 1.41 8.67 l -7.41 -4.11 l -7.41 4.11 l 1.41 -8.67 l -6 -6.15 l 8.28 -1.29 z"/><path d="m 776 560 m 12 0 l 3.72 7.89 l 8.28 1.29 l -6 6.15 l 1.41 8.67 l -7.41 -4.11 l -7.41 4.11 l 1.41 -8.67 l -6 -6.15 l 8.28 -1.29 z"/><path d="m 776 608 m 12 0 l 3.72 7.89 l 8.28 1.29 l -6 6.15 l 1.41 8.67 l -7.41 -4.11 l -7.41 4.11 l 1.41 -8.67 l -6 -6.15 l 8.28 -1.29 z"/><path d="m 776 632 m 12 0 l 3.72 7.89 l 8.28 1.29 l -6 6.15 l 1.41 8.67 l -7.41 -4.11 l -7.41 4.11 l 1.41 -8.67 l -6 -6.15 l 8.28 -1.29 z"/><path d="m 776 656 m 12 0 l 3.72 7.89 l 8.28 1.29 l -6 6.15 l 1.41 8.67 l -7.41 -4.11 l -7.41 4.11 l 1.41 -8.67 l -6 -6.15 l 8.28 -1.29 z"/><path d="m 776 776 m 12 0 l 3.72 7.89 l 8.28 1.29 l -6 6.15 l 1.41 8.67 l -7.41 -4.11 l -7.41 4.11 l 1.41 -8.67 l -6 -6.15 l 8.28 -1.29 z"/><path d="m 776 800 m 12 0 l 3.72 7.89 l 8.28 1.29 l -6 6.15 l 1.41 8.67 l -7.41 -4.11 l -7.41 4.11 l 1.41 -8.67 l -6 -6.15 l 8.28 -1.29 z"/><path d="m 776 824 m 12 0 l 3.72 7.89 l 8.28 1.29 l -6 6.15 l 1.41 8.67 l -7.41 -4.11 l -7.41 4.11 l 1.41 -8.67 l -6 -6.15 l 8.28 -1.29 z"/><path d="m 800 344 m 12 0 l 3.72 7.89 l 8.28 1.29 l -6 6.15 l 1.41 8.67 l -7.41 -4.11 l -7.41 4.11 l 1.41 -8.67 l -6 -6.15 l 8.28 -1.29 z"/><path d="m 800 368 m 12 0 l 3.72 7.89 l 8.28 1.29 l -6 6.15 l 1.41 8.67 l -7.41 -4.11 l -7.41 4.11 l 1.41 -8.67 l -6 -6.15 l 8.28 -1.29 z"/><path d="m 800 488 m 12 0 l 3.72 7.89 l 8.28 1.29 l -6 6.15 l 1.41 8.67 l -7.41 -4.11 l -7.41 4.11 l 1.41 -8.67 l -6 -6.15 l 8.28 -1.29 z"/><path d="m 800 560 m 12 0 l 3.72 7.89 l 8.28 1.29 l -6 6.15 l 1.41 8.67 l -7.41 -4.11 l -7.41 4.11 l 1.41 -8.67 l -6 -6.15 l 8.28 -1.29 z"/><path d="m 800 584 m 12 0 l 3.72 7.89 l 8.28 1.29 l -6 6.15 l 1.41 8.67 l -7.41 -4.11 l -7.41 4.11 l 1.41 -8.67 l -6 -6.15 l 8.28 -1.29 z"/><path d="m 800 632 m 12 0 l 3.72 7.89 l 8.28 1.29 l -6 6.15 l 1.41 8.67 l -7.41 -4.11 l -7.41 4.11 l 1.41 -8.67 l -6 -6.15 l 8.28 -1.29 z"/><path d="m 800 656 m 12 0 l 3.72 7.89 l 8.28 1.29 l -6 6.15 l 1.41 8.67 l -7.41 -4.11 l -7.41 4.11 l 1.41 -8.67 l -6 -6.15 l 8.28 -1.29 z"/><path d="m 800 704 m 12 0 l 3.72 7.89 l 8.28 1.29 l -6 6.15 l 1.41 8.67 l -7.41 -4.11 l -7.41 4.11 l 1.41 -8.67 l -6 -6.15 l 8.28 -1.29 z"/><path d="m 800 752 m 12 0 l 3.72 7.89 l 8.28 1.29 l -6 6.15 l 1.41 8.67 l -7.41 -4.11 l -7.41 4.11 l 1.41 -8.67 l -6 -6.15 l 8.28 -1.29 z"/><path d="m 800 800 m 12 0 l 3.72 7.89 l 8.28 1.29 l -6 6.15 l 1.41 8.67 l -7.41 -4.11 l -7.41 4.11 l 1.41 -8.67 l -6 -6.15 l 8.28 -1.29 z"/><path d="m 800 824 m 12 0 l 3.72 7.89 l 8.28 1.29 l -6 6.15 l 1.41 8.67 l -7.41 -4.11 l -7.41 4.11 l 1.41 -8.67 l -6 -6.15 l 8.28 -1.29 z"/><path d="m 824 368 m 12 0 l 3.72 7.89 l 8.28 1.29 l -6 6.15 l 1.41 8.67 l -7.41 -4.11 l -7.41 4.11 l 1.41 -8.67 l -6 -6.15 l 8.28 -1.29 z"/><path d="m 824 488 m 12 0 l 3.72 7.89 l 8.28 1.29 l -6 6.15 l 1.41 8.67 l -7.41 -4.11 l -7.41 4.11 l 1.41 -8.67 l -6 -6.15 l 8.28 -1.29 z"/><path d="m 824 512 m 12 0 l 3.72 7.89 l 8.28 1.29 l -6 6.15 l 1.41 8.67 l -7.41 -4.11 l -7.41 4.11 l 1.41 -8.67 l -6 -6.15 l 8.28 -1.29 z"/><path d="m 824 560 m 12 0 l 3.72 7.89 l 8.28 1.29 l -6 6.15 l 1.41 8.67 l -7.41 -4.11 l -7.41 4.11 l 1.41 -8.67 l -6 -6.15 l 8.28 -1.29 z"/><path d="m 824 632 m 12 0 l 3.72 7.89 l 8.28 1.29 l -6 6.15 l 1.41 8.67 l -7.41 -4.11 l -7.41 4.11 l 1.41 -8.67 l -6 -6.15 l 8.28 -1.29 z"/><path d="m 824 656 m 12 0 l 3.72 7.89 l 8.28 1.29 l -6 6.15 l 1.41 8.67 l -7.41 -4.11 l -7.41 4.11 l 1.41 -8.67 l -6 -6.15 l 8.28 -1.29 z"/><path d="m 824 728 m 12 0 l 3.72 7.89 l 8.28 1.29 l -6 6.15 l 1.41 8.67 l -7.41 -4.11 l -7.41 4.11 l 1.41 -8.67 l -6 -6.15 l 8.28 -1.29 z"/><path d="m 824 776 m 12 0 l 3.72 7.89 l 8.28 1.29 l -6 6.15 l 1.41 8.67 l -7.41 -4.11 l -7.41 4.11 l 1.41 -8.67 l -6 -6.15 l 8.28 -1.29 z"/><path d="m 824 800 m 12 0 l 3.72 7.89 l 8.28 1.29 l -6 6.15 l 1.41 8.67 l -7.41 -4.11 l -7.41 4.11 l 1.41 -8.67 l -6 -6.15 l 8.28 -1.29 z"/></clipPath><clipPath id="clip-path-corners-square-color-0-0"><path d="m 152 152 m 12 0 l 3.72 7.89 l 8.28 1.29 l -6 6.15 l 1.41 8.67 l -7.41 -4.11 l -7.41 4.11 l 1.41 -8.67 l -6 -6.15 l 8.28 -1.29 z"/><path d="m 152 176 m 12 0 l 3.72 7.89 l 8.28 1.29 l -6 6.15 l 1.41 8.67 l -7.41 -4.11 l -7.41 4.11 l 1.41 -8.67 l -6 -6.15 l 8.28 -1.29 z"/><path d="m 152 200 m 12 0 l 3.72 7.89 l 8.28 1.29 l -6 6.15 l 1.41 8.67 l -7.41 -4.11 l -7.41 4.11 l 1.41 -8.67 l -6 -6.15 l 8.28 -1.29 z"/><path d="m 152 224 m 12 0 l 3.72 7.89 l 8.28 1.29 l -6 6.15 l 1.41 8.67 l -7.41 -4.11 l -7.41 4.11 l 1.41 -8.67 l -6 -6.15 l 8.28 -1.29 z"/><path d="m 152 248 m 12 0 l 3.72 7.89 l 8.28 1.29 l -6 6.15 l 1.41 8.67 l -7.41 -4.11 l -7.41 4.11 l 1.41 -8.67 l -6 -6.15 l 8.28 -1.29 z"/><path d="m 152 272 m 12 0 l 3.72 7.89 l 8.28 1.29 l -6 6.15 l 1.41 8.67 l -7.41 -4.11 l -7.41 4.11 l 1.41 -8.67 l -6 -6.15 l 8.28 -1.29 z"/><path d="m 152 296 m 12 0 l 3.72 7.89 l 8.28 1.29 l -6 6.15 l 1.41 8.67 l -7.41 -4.11 l -7.41 4.11 l 1.41 -8.67 l -6 -6.15 l 8.28 -1.29 z"/><path d="m 176 152 m 12 0 l 3.72 7.89 l 8.28 1.29 l -6 6.15 l 1.41 8.67 l -7.41 -4.11 l -7.41 4.11 l 1.41 -8.67 l -6 -6.15 l 8.28 -1.29 z"/><path d="m 176 296 m 12 0 l 3.72 7.89 l 8.28 1.29 l -6 6.15 l 1.41 8.67 l -7.41 -4.11 l -7.41 4.11 l 1.41 -8.67 l -6 -6.15 l 8.28 -1.29 z"/><path d="m 200 152 m 12 0 l 3.72 7.89 l 8.28 1.29 l -6 6.15 l 1.41 8.67 l -7.41 -4.11 l -7.41 4.11 l 1.41 -8.67 l -6 -6.15 l 8.28 -1.29 z"/><path d="m 200 296 m 12 0 l 3.72 7.89 l 8.28 1.29 l -6 6.15 l 1.41 8.67 l -7.41 -4.11 l -7.41 4.11 l 1.41 -8.67 l -6 -6.15 l 8.28 -1.29 z"/><path d="m 224 152 m 12 0 l 3.72 7.89 l 8.28 1.29 l -6 6.15 l 1.41 8.67 l -7.41 -4.11 l -7.41 4.11 l 1.41 -8.67 l -6 -6.15 l 8.28 -1.29 z"/><path d="m 224 296 m 12 0 l 3.72 7.89 l 8.28 1.29 l -6 6.15 l 1.41 8.67 l -7.41 -4.11 l -7.41 4.11 l 1.41 -8.67 l -6 -6.15 l 8.28 -1.29 z"/><path d="m 248 152 m 12 0 l 3.72 7.89 l 8.28 1.29 l -6 6.15 l 1.41 8.67 l -7.41 -4.11 l -7.41 4.11 l 1.41 -8.67 l -6 -6.15 l 8.28 -1.29 z"/><path d="m 248 296 m 12 0 l 3.72 7.89 l 8.28 1.29 l -6 6.15 l 1.41 8.67 l -7.41 -4.11 l -7.41 4.11 l 1.41 -8.67 l -6 -6.15 l 8.28 -1.29 z"/><path d="m 272 152 m 12 0 l 3.72 7.89 l 8.28 1.29 l -6 6.15 l 1.41 8.67 l -7.41 -4.11 l -7.41 4.11 l 1.41 -8.67 l -6 -6.15 l 8.28 -1.29 z"/><path d="m 272 296 m 12 0 l 3.72 7.89 l 8.28 1.29 l -6 6.15 l 1.41 8.67 l -7.41 -4.11 l -7.41 4.11 l 1.41 -8.67 l -6 -6.15 l 8.28 -1.29 z"/><path d="m 296 152 m 12 0 l 3.72 7.89 l 8.28 1.29 l -6 6.15 l 1.41 8.67 l -7.41 -4.11 l -7.41 4.11 l 1.41 -8.67 l -6 -6.15 l 8.28 -1.29 z"/><path d="m 296 176 m 12 0 l 3.72 7.89 l 8.28 1.29 l -6 6.15 l 1.41 8.67 l -7.41 -4.11 l -7.41 4.11 l 1.41 -8.67 l -6 -6.15 l 8.28 -1.29 z"/><path d="m 296 200 m 12 0 l 3.72 7.89 l 8.28 1.29 l -6 6.15 l 1.41 8.67 l -7.41 -4.11 l -7.41 4.11 l 1.41 -8.67 l -6 -6.15 l 8.28 -1.29 z"/><path d="m 296 224 m 12 0 l 3.72 7.89 l 8.28 1.29 l -6 6.15 l 1.41 8.67 l -7.41 -4.11 l -7.41 4.11 l 1.41 -8.67 l -6 -6.15 l 8.28 -1.29 z"/><path d="m 296 248 m 12 0 l 3.72 7.89 l 8.28 1.29 l -6 6.15 l 1.41 8.67 l -7.41 -4.11 l -7.41 4.11 l 1.41 -8.67 l -6 -6.15 l 8.28 -1.29 z"/><path d="m 296 272 m 12 0 l 3.72 7.89 l 8.28 1.29 l -6 6.15 l 1.41 8.67 l -7.41 -4.11 l -7.41 4.11 l 1.41 -8.67 l -6 -6.15 l 8.28 -1.29 z"/><path d="m 296 296 m 12 0 l 3.72 7.89 l 8.28 1.29 l -6 6.15 l 1.41 8.67 l -7.41 -4.11 l -7.41 4.11 l 1.41 -8.67 l -6 -6.15 l 8.28 -1.29 z"/></clipPath><clipPath id="clip-path-corners-dot-color-0-0"><rect x="200" y="200" width="72" height="72" transform="rotate(0,236,236)"/></clipPath><clipPath id="clip-path-corners-square-color-1-0"><path d="m 680 152 m 12 0 l 3.72 7.89 l 8.28 1.29 l -6 6.15 l 1.41 8.67 l -7.41 -4.11 l -7.41 4.11 l 1.41 -8.67 l -6 -6.15 l 8.28 -1.29 z"/><path d="m 680 176 m 12 0 l 3.72 7.89 l 8.28 1.29 l -6 6.15 l 1.41 8.67 l -7.41 -4.11 l -7.41 4.11 l 1.41 -8.67 l -6 -6.15 l 8.28 -1.29 z"/><path d="m 680 200 m 12 0 l 3.72 7.89 l 8.28 1.29 l -6 6.15 l 1.41 8.67 l -7.41 -4.11 l -7.41 4.11 l 1.41 -8.67 l -6 -6.15 l 8.28 -1.29 z"/><path d="m 680 224 m 12 0 l 3.72 7.89 l 8.28 1.29 l -6 6.15 l 1.41 8.67 l -7.41 -4.11 l -7.41 4.11 l 1.41 -8.67 l -6 -6.15 l 8.28 -1.29 z"/><path d="m 680 248 m 12 0 l 3.72 7.89 l 8.28 1.29 l -6 6.15 l 1.41 8.67 l -7.41 -4.11 l -7.41 4.11 l 1.41 -8.67 l -6 -6.15 l 8.28 -1.29 z"/><path d="m 680 272 m 12 0 l 3.72 7.89 l 8.28 1.29 l -6 6.15 l 1.41 8.67 l -7.41 -4.11 l -7.41 4.11 l 1.41 -8.67 l -6 -6.15 l 8.28 -1.29 z"/><path d="m 680 296 m 12 0 l 3.72 7.89 l 8.28 1.29 l -6 6.15 l 1.41 8.67 l -7.41 -4.11 l -7.41 4.11 l 1.41 -8.67 l -6 -6.15 l 8.28 -1.29 z"/><path d="m 704 152 m 12 0 l 3.72 7.89 l 8.28 1.29 l -6 6.15 l 1.41 8.67 l -7.41 -4.11 l -7.41 4.11 l 1.41 -8.67 l -6 -6.15 l 8.28 -1.29 z"/><path d="m 704 296 m 12 0 l 3.72 7.89 l 8.28 1.29 l -6 6.15 l 1.41 8.67 l -7.41 -4.11 l -7.41 4.11 l 1.41 -8.67 l -6 -6.15 l 8.28 -1.29 z"/><path d="m 728 152 m 12 0 l 3.72 7.89 l 8.28 1.29 l -6 6.15 l 1.41 8.67 l -7.41 -4.11 l -7.41 4.11 l 1.41 -8.67 l -6 -6.15 l 8.28 -1.29 z"/><path d="m 728 296 m 12 0 l 3.72 7.89 l 8.28 1.29 l -6 6.15 l 1.41 8.67 l -7.41 -4.11 l -7.41 4.11 l 1.41 -8.67 l -6 -6.15 l 8.28 -1.29 z"/><path d="m 752 152 m 12 0 l 3.72 7.89 l 8.28 1.29 l -6 6.15 l 1.41 8.67 l -7.41 -4.11 l -7.41 4.11 l 1.41 -8.67 l -6 -6.15 l 8.28 -1.29 z"/><path d="m 752 296 m 12 0 l 3.72 7.89 l 8.28 1.29 l -6 6.15 l 1.41 8.67 l -7.41 -4.11 l -7.41 4.11 l 1.41 -8.67 l -6 -6.15 l 8.28 -1.29 z"/><path d="m 776 152 m 12 0 l 3.72 7.89 l 8.28 1.29 l -6 6.15 l 1.41 8.67 l -7.41 -4.11 l -7.41 4.11 l 1.41 -8.67 l -6 -6.15 l 8.28 -1.29 z"/><path d="m 776 296 m 12 0 l 3.72 7.89 l 8.28 1.29 l -6 6.15 l 1.41 8.67 l -7.41 -4.11 l -7.41 4.11 l 1.41 -8.67 l -6 -6.15 l 8.28 -1.29 z"/><path d="m 800 152 m 12 0 l 3.72 7.89 l 8.28 1.29 l -6 6.15 l 1.41 8.67 l -7.41 -4.11 l -7.41 4.11 l 1.41 -8.67 l -6 -6.15 l 8.28 -1.29 z"/><path d="m 800 296 m 12 0 l 3.72 7.89 l 8.28 1.29 l -6 6.15 l 1.41 8.67 l -7.41 -4.11 l -7.41 4.11 l 1.41 -8.67 l -6 -6.15 l 8.28 -1.29 z"/><path d="m 824 152 m 12 0 l 3.72 7.89 l 8.28 1.29 l -6 6.15 l 1.41 8.67 l -7.41 -4.11 l -7.41 4.11 l 1.41 -8.67 l -6 -6.15 l 8.28 -1.29 z"/><path d="m 824 176 m 12 0 l 3.72 7.89 l 8.28 1.29 l -6 6.15 l 1.41 8.67 l -7.41 -4.11 l -7.41 4.11 l 1.41 -8.67 l -6 -6.15 l 8.28 -1.29 z"/><path d="m 824 200 m 12 0 l 3.72 7.89 l 8.28 1.29 l -6 6.15 l 1.41 8.67 l -7.41 -4.11 l -7.41 4.11 l 1.41 -8.67 l -6 -6.15 l 8.28 -1.29 z"/><path d="m 824 224 m 12 0 l 3.72 7.89 l 8.28 1.29 l -6 6.15 l 1.41 8.67 l -7.41 -4.11 l -7.41 4.11 l 1.41 -8.67 l -6 -6.15 l 8.28 -1.29 z"/><path d="m 824 248 m 12 0 l 3.72 7.89 l 8.28 1.29 l -6 6.15 l 1.41 8.67 l -7.41 -4.11 l -7.41 4.11 l 1.41 -8.67 l -6 -6.15 l 8.28 -1.29 z"/><path d="m 824 272 m 12 0 l 3.72 7.89 l 8.28 1.29 l -6 6.15 l 1.41 8.67 l -7.41 -4.11 l -7.41 4.11 l 1.41 -8.67 l -6 -6.15 l 8.28 -1.29 z"/><path d="m 824 296 m 12 0 l 3.72 7.89 l 8.28 1.29 l -6 6.15 l 1.41 8.67 l -7.41 -4.11 l -7.41 4.11 l 1.41 -8.67 l -6 -6.15 l 8.28 -1.29 z"/></clipPath><clipPath id="clip-path-corners-dot-color-1-0"><rect x="728" y="200" width="72" height="72" transform="rotate(90,764,236)"/></clipPath><clipPath id="clip-path-corners-square-color-0-1"><path d="m 152 680 m 12 0 l 3.72 7.89 l 8.28 1.29 l -6 6.15 l 1.41 8.67 l -7.41 -4.11 l -7.41 4.11 l 1.41 -8.67 l -6 -6.15 l 8.28 -1.29 z"/><path d="m 152 704 m 12 0 l 3.72 7.89 l 8.28 1.29 l -6 6.15 l 1.41 8.67 l -7.41 -4.11 l -7.41 4.11 l 1.41 -8.67 l -6 -6.15 l 8.28 -1.29 z"/><path d="m 152 728 m 12 0 l 3.72 7.89 l 8.28 1.29 l -6 6.15 l 1.41 8.67 l -7.41 -4.11 l -7.41 4.11 l 1.41 -8.67 l -6 -6.15 l 8.28 -1.29 z"/><path d="m 152 752 m 12 0 l 3.72 7.89 l 8.28 1.29 l -6 6.15 l 1.41 8.67 l -7.41 -4.11 l -7.41 4.11 l 1.41 -8.67 l -6 -6.15 l 8.28 -1.29 z"/><path d="m 152 776 m 12 0 l 3.72 7.89 l 8.28 1.29 l -6 6.15 l 1.41 8.67 l -7.41 -4.11 l -7.41 4.11 l 1.41 -8.67 l -6 -6.15 l 8.28 -1.29 z"/><path d="m 152 800 m 12 0 l 3.72 7.89 l 8.28 1.29 l -6 6.15 l 1.41 8.67 l -7.41 -4.11 l -7.41 4.11 l 1.41 -8.67 l -6 -6.15 l 8.28 -1.29 z"/><path d="m 152 824 m 12 0 l 3.72 7.89 l 8.28 1.29 l -6 6.15 l 1.41 8.67 l -7.41 -4.11 l -7.41 4.11 l 1.41 -8.67 l -6 -6.15 l 8.28 -1.29 z"/><path d="m 176 680 m 12 0 l 3.72 7.89 l 8.28 1.29 l -6 6.15 l 1.41 8.67 l -7.41 -4.11 l -7.41 4.11 l 1.41 -8.67 l -6 -6.15 l 8.28 -1.29 z"/><path d="m 176 824 m 12 0 l 3.72 7.89 l 8.28 1.29 l -6 6.15 l 1.41 8.67 l -7.41 -4.11 l -7.41 4.11 l 1.41 -8.67 l -6 -6.15 l 8.28 -1.29 z"/><path d="m 200 680 m 12 0 l 3.72 7.89 l 8.28 1.29 l -6 6.15 l 1.41 8.67 l -7.41 -4.11 l -7.41 4.11 l 1.41 -8.67 l -6 -6.15 l 8.28 -1.29 z"/><path d="m 200 824 m 12 0 l 3.72 7.89 l 8.28 1.29 l -6 6.15 l 1.41 8.67 l -7.41 -4.11 l -7.41 4.11 l 1.41 -8.67 l -6 -6.15 l 8.28 -1.29 z"/><path d="m 224 680 m 12 0 l 3.72 7.89 l 8.28 1.29 l -6 6.15 l 1.41 8.67 l -7.41 -4.11 l -7.41 4.11 l 1.41 -8.67 l -6 -6.15 l 8.28 -1.29 z"/><path d="m 224 824 m 12 0 l 3.72 7.89 l 8.28 1.29 l -6 6.15 l 1.41 8.67 l -7.41 -4.11 l -7.41 4.11 l 1.41 -8.67 l -6 -6.15 l 8.28 -1.29 z"/><path d="m 248 680 m 12 0 l 3.72 7.89 l 8.28 1.29 l -6 6.15 l 1.41 8.67 l -7.41 -4.11 l -7.41 4.11 l 1.41 -8.67 l -6 -6.15 l 8.28 -1.29 z"/><path d="m 248 824 m 12 0 l 3.72 7.89 l 8.28 1.29 l -6 6.15 l 1.41 8.67 l -7.41 -4.11 l -7.41 4.11 l 1.41 -8.67 l -6 -6.15 l 8.28 -1.29 z"/><path d="m 272 680 m 12 0 l 3.72 7.89 l 8.28 1.29 l -6 6.15 l 1.41 8.67 l -7.41 -4.11 l -7.41 4.11 l 1.41 -8.67 l -6 -6.15 l 8.28 -1.29 z"/><path d="m 272 824 m 12 0 l 3.72 7.89 l 8.28 1.29 l -6 6.15 l 1.41 8.67 l -7.41 -4.11 l -7.41 4.11 l 1.41 -8.67 l -6 -6.15 l 8.28 -1.29 z"/><path d="m 296 680 m 12 0 l 3.72 7.89 l 8.28 1.29 l -6 6.15 l 1.41 8.67 l -7.41 -4.11 l -7.41 4.11 l 1.41 -8.67 l -6 -6.15 l 8.28 -1.29 z"/><path d="m 296 704 m 12 0 l 3.72 7.89 l 8.28 1.29 l -6 6.15 l 1.41 8.67 l -7.41 -4.11 l -7.41 4.11 l 1.41 -8.67 l -6 -6.15 l 8.28 -1.29 z"/><path d="m 296 728 m 12 0 l 3.72 7.89 l 8.28 1.29 l -6 6.15 l 1.41 8.67 l -7.41 -4.11 l -7.41 4.11 l 1.41 -8.67 l -6 -6.15 l 8.28 -1.29 z"/><path d="m 296 752 m 12 0 l 3.72 7.89 l 8.28 1.29 l -6 6.15 l 1.41 8.67 l -7.41 -4.11 l -7.41 4.11 l 1.41 -8.67 l -6 -6.15 l 8.28 -1.29 z"/><path d="m 296 776 m 12 0 l 3.72 7.89 l 8.28 1.29 l -6 6.15 l 1.41 8.67 l -7.41 -4.11 l -7.41 4.11 l 1.41 -8.67 l -6 -6.15 l 8.28 -1.29 z"/><path d="m 296 800 m 12 0 l 3.72 7.89 l 8.28 1.29 l -6 6.15 l 1.41 8.67 l -7.41 -4.11 l -7.41 4.11 l 1.41 -8.67 l -6 -6.15 l 8.28 -1.29 z"/><path d="m 296 824 m 12 0 l 3.72 7.89 l 8.28 1.29 l -6 6.15 l 1.41 8.67 l -7.41 -4.11 l -7.41 4.11 l 1.41 -8.67 l -6 -6.15 l 8.28 -1.29 z"/></clipPath><clipPath id="clip-path-corners-dot-color-0-1"><rect x="200" y="728" width="72" height="72" transform="rotate(-90,236,764)"/></clipPath></defs><defs/><text x="50%" y="1080" fill="#000000" dominant-baseline="middle" text-anchor="middle" font-family="sans-serif" font-size="90" font-weight="600">Scan me!</text><rect x="112" y="112" height="776" width="776" clip-path="url('#clip-path-background-color')" fill="#ffffff"/><rect x="152" y="152" height="696" width="696" clip-path="url('#clip-path-dot-color')" fill="#000000"/><rect x="152" y="152" height="168" width="168" clip-path="url('#clip-path-corners-square-color-0-0')" fill="#000000"/><rect x="200" y="200" height="72" width="72" clip-path="url('#clip-path-corners-dot-color-0-0')" fill="#000000"/><rect x="680" y="152" height="168" width="168" clip-path="url('#clip-path-corners-square-color-1-0')" fill="#000000"/><rect x="728" y="200" height="72" width="72" clip-path="url('#clip-path-corners-dot-color-1-0')" fill="#000000"/><rect x="152" y="680" height="168" width="168" clip-path="url('#clip-path-corners-square-color-0-1')" fill="#000000"/><rect x="200" y="728" height="72" width="72" clip-path="url('#clip-path-corners-dot-color-0-1')" fill="#000000"/></svg>